<mxfile host="app.diagrams.net" modified="2020-11-02T13:26:01.977Z" agent="5.0 (Macintosh)" etag="oog4l8Rf15Cyy-U8L5PX" version="13.8.8" type="github">
  <diagram id="rOwi7XyphZKeORDImwSU" name="Page-1">
    <mxGraphModel dx="1577" dy="937" grid="1" gridSize="10" guides="1" tooltips="1" connect="1" arrows="1" fold="1" page="1" pageScale="1" pageWidth="1169" pageHeight="827" math="0" shadow="0">
      <root>
        <mxCell id="0" />
        <mxCell id="1" parent="0" />
        <mxCell id="Jg988Ya-Pu23oOCJ0d98-27" value="&lt;font style=&quot;font-size: 10px&quot;&gt;&lt;font style=&quot;font-size: 12px&quot; color=&quot;#12AAB5&quot;&gt;&lt;b&gt;Label&lt;/b&gt;&lt;/font&gt;&lt;br&gt;&lt;br&gt;&lt;font size=&quot;1&quot;&gt;Lorem ipsum dolor sit amet, consectetur adipisicing elit, sed do eiusmod tempor incididunt ut labore et dolore magna aliqua.&lt;/font&gt;&lt;/font&gt;" style="rounded=1;strokeColor=none;fillColor=#EEEEEE;align=left;arcSize=12;verticalAlign=top;whiteSpace=wrap;html=1;fontSize=12;spacing=8;" vertex="1" parent="1">
          <mxGeometry x="280" y="550" width="210" height="100" as="geometry" />
        </mxCell>
        <mxCell id="Jg988Ya-Pu23oOCJ0d98-39" value="" style="group" vertex="1" connectable="0" parent="1">
          <mxGeometry x="30" y="60" width="1130" height="1110" as="geometry" />
        </mxCell>
        <mxCell id="Jg988Ya-Pu23oOCJ0d98-2" value="" style="whiteSpace=wrap;html=1;aspect=fixed;fontColor=#FFFFFF;strokeColor=#FFFFFF;" vertex="1" parent="Jg988Ya-Pu23oOCJ0d98-39">
          <mxGeometry y="-20" width="1090" height="1090" as="geometry" />
        </mxCell>
        <mxCell id="Jg988Ya-Pu23oOCJ0d98-5" value="Proyecto Administración de cuentas personales" style="text;html=1;strokeColor=none;fillColor=none;align=center;verticalAlign=middle;whiteSpace=wrap;rounded=0;fontStyle=1;fontSize=16;" vertex="1" parent="Jg988Ya-Pu23oOCJ0d98-39">
          <mxGeometry x="356.5" y="100" width="380" height="20" as="geometry" />
        </mxCell>
        <mxCell id="Jg988Ya-Pu23oOCJ0d98-40" value="TECNOLOGÍAS" style="text;html=1;strokeColor=none;fillColor=none;align=center;verticalAlign=middle;whiteSpace=wrap;rounded=0;fontSize=14;fontStyle=1" vertex="1" parent="Jg988Ya-Pu23oOCJ0d98-39">
          <mxGeometry x="130" y="150" width="25" height="20" as="geometry" />
        </mxCell>
        <mxCell id="Jg988Ya-Pu23oOCJ0d98-34" value="" style="group" vertex="1" connectable="0" parent="Jg988Ya-Pu23oOCJ0d98-39">
          <mxGeometry x="413" y="190" width="150" height="140" as="geometry" />
        </mxCell>
        <mxCell id="Jg988Ya-Pu23oOCJ0d98-23" value="&lt;font style=&quot;font-size: 10px&quot;&gt;&lt;font style=&quot;font-size: 12px&quot; color=&quot;#00CCCC&quot;&gt;&lt;b&gt;React&lt;/b&gt;&lt;/font&gt;&lt;br&gt;&lt;font size=&quot;1&quot;&gt;Framework de presentación&lt;br&gt;&lt;/font&gt;&lt;/font&gt;" style="rounded=1;strokeColor=none;fillColor=#EEEEEE;align=left;arcSize=12;verticalAlign=top;whiteSpace=wrap;html=1;fontSize=12;spacing=8;" vertex="1" parent="Jg988Ya-Pu23oOCJ0d98-34">
          <mxGeometry width="159.64285714285714" height="139.99999999999997" as="geometry" />
        </mxCell>
        <mxCell id="Jg988Ya-Pu23oOCJ0d98-28" value="" style="shape=image;html=1;verticalAlign=top;verticalLabelPosition=bottom;labelBackgroundColor=#ffffff;imageAspect=0;aspect=fixed;image=https://cdn4.iconfinder.com/data/icons/logos-3/600/React.js_logo-128.png" vertex="1" parent="Jg988Ya-Pu23oOCJ0d98-34">
          <mxGeometry x="48.214285714285715" y="61.59999999999996" width="48" height="48" as="geometry" />
        </mxCell>
        <mxCell id="Jg988Ya-Pu23oOCJ0d98-36" value="" style="group" vertex="1" connectable="0" parent="Jg988Ya-Pu23oOCJ0d98-39">
          <mxGeometry x="586.5" y="190" width="150" height="140" as="geometry" />
        </mxCell>
        <mxCell id="Jg988Ya-Pu23oOCJ0d98-26" value="&lt;font style=&quot;font-size: 10px&quot;&gt;&lt;font style=&quot;font-size: 12px&quot; color=&quot;#66CC00&quot;&gt;&lt;b&gt;Nodejs&lt;/b&gt;&lt;/font&gt;&lt;br&gt;Lenguaje del backend&lt;br&gt;&lt;/font&gt;" style="rounded=1;strokeColor=none;fillColor=#EEEEEE;align=left;arcSize=12;verticalAlign=top;whiteSpace=wrap;html=1;fontSize=12;spacing=8;" vertex="1" parent="Jg988Ya-Pu23oOCJ0d98-36">
          <mxGeometry width="150" height="139.99999999999994" as="geometry" />
        </mxCell>
        <mxCell id="Jg988Ya-Pu23oOCJ0d98-31" value="" style="shape=image;html=1;verticalAlign=top;verticalLabelPosition=bottom;labelBackgroundColor=#ffffff;imageAspect=0;aspect=fixed;image=https://cdn2.iconfinder.com/data/icons/nodejs-1/128/nodejs-128.png" vertex="1" parent="Jg988Ya-Pu23oOCJ0d98-36">
          <mxGeometry x="47.505" y="58.32803030303026" width="55" height="55" as="geometry" />
        </mxCell>
        <mxCell id="Jg988Ya-Pu23oOCJ0d98-46" value="Cloud Plataforms" style="text;align=center;fontStyle=1;verticalAlign=middle;spacingLeft=3;spacingRight=3;strokeColor=none;rotatable=0;points=[[0,0.5],[1,0.5]];portConstraint=eastwest;fontSize=14;" vertex="1" parent="Jg988Ya-Pu23oOCJ0d98-39">
          <mxGeometry x="110" y="380" width="80" height="26" as="geometry" />
        </mxCell>
        <mxCell id="Jg988Ya-Pu23oOCJ0d98-33" value="" style="group" vertex="1" connectable="0" parent="Jg988Ya-Pu23oOCJ0d98-39">
          <mxGeometry x="90" y="190" width="150" height="140" as="geometry" />
        </mxCell>
        <mxCell id="Jg988Ya-Pu23oOCJ0d98-24" value="&lt;font style=&quot;font-size: 10px&quot;&gt;&lt;font style=&quot;font-size: 12px&quot; color=&quot;#F2931E&quot;&gt;&lt;b&gt;&lt;font color=&quot;#4D4D4D&quot;&gt;Mongo&lt;/font&gt;&lt;font color=&quot;#B3B3B3&quot;&gt;DB&lt;/font&gt;&lt;/b&gt;&lt;/font&gt;&lt;br&gt;Base de datos no SQL&lt;br&gt;&lt;/font&gt;" style="rounded=1;strokeColor=none;fillColor=#EEEEEE;align=left;arcSize=12;verticalAlign=top;whiteSpace=wrap;html=1;fontSize=12;spacing=8;" vertex="1" parent="Jg988Ya-Pu23oOCJ0d98-33">
          <mxGeometry width="150.00000000000003" height="139.99999999999997" as="geometry" />
        </mxCell>
        <mxCell id="Jg988Ya-Pu23oOCJ0d98-30" value="" style="dashed=0;outlineConnect=0;html=1;align=center;labelPosition=center;verticalLabelPosition=bottom;verticalAlign=top;shape=mxgraph.webicons.mongodb;gradientColor=#DFDEDE" vertex="1" parent="Jg988Ya-Pu23oOCJ0d98-33">
          <mxGeometry x="46.15384615384615" y="60.3643724696356" width="57.69230769230768" height="56.6801619433198" as="geometry" />
        </mxCell>
        <mxCell id="Jg988Ya-Pu23oOCJ0d98-35" value="" style="group" vertex="1" connectable="0" parent="Jg988Ya-Pu23oOCJ0d98-39">
          <mxGeometry x="250" y="190" width="150" height="140" as="geometry" />
        </mxCell>
        <mxCell id="Jg988Ya-Pu23oOCJ0d98-25" value="&lt;font style=&quot;font-size: 10px&quot;&gt;&lt;font style=&quot;font-size: 12px&quot; color=&quot;#5C5C5C&quot;&gt;&lt;b&gt;Express&lt;/b&gt;&lt;/font&gt;&lt;br&gt;Framework para API REST.&lt;br&gt;&lt;/font&gt;" style="rounded=1;strokeColor=none;fillColor=#EEEEEE;align=left;arcSize=12;verticalAlign=top;whiteSpace=wrap;html=1;fontSize=12;spacing=8;" vertex="1" parent="Jg988Ya-Pu23oOCJ0d98-35">
          <mxGeometry width="150" height="139.99999999999997" as="geometry" />
        </mxCell>
        <mxCell id="Jg988Ya-Pu23oOCJ0d98-32" value="" style="shape=image;html=1;verticalAlign=top;verticalLabelPosition=bottom;labelBackgroundColor=#ffffff;imageAspect=0;aspect=fixed;image=data:image/png,iVBORw0KGgoAAAANSUhEUgAAA6YAAAH4CAYAAABZmfBFAAAMY2lDQ1BJQ0MgUHJvZmlsZQAASImVVwdck0cbv3dkkrACYcgIe4myCSAjhBVBQKYgKiEJJIwYE4KKm1pUsG4RxYlWRRStA5A6ELG4iuK2juJApVKLVVyofBcSqLXf+H3P73fv/fPcc/9n5O597wDQ6eTLZPmoLgAF0kJ5QmQoa0JaOov0GFCACTCCTy++QCHjxMfHAChD/d/lzQ2AqPqrriquf47/V9EXihQCAJAMiLOECkEBxM0A4CUCmbwQAGIY1NtML5SpsBhiAzkMEOLZKpyjxitUOEuNdwzaJCVwIW4EgEzj8+U5AGi3Qj2rSJADebQfQ+wmFUqkAOgYQBwkEPOFECdBPLKgYKoKz4fYEdrLIN4NMTvrC86cv/FnDfPz+TnDWJ3XoJDDJApZPn/m/1ma/y0F+cohH/aw0cTyqARV/rCGt/KmRqswDeIeaVZsnKrWEL+TCNV1BwClipVRyWp71Eyg4ML6ASbEbkJ+WDTEZhBHSPNjYzT6rGxJBA9iuFrQGZJCXpJm7mKRIjxRw7lRPjUhbghny7kczdw6vnzQr8q+VZmXzNHw3xKLeEP8r4vFSakQUwHAqEWSlFiItSE2UOQlRqttMOtiMTd2yEauTFDFbwsxWySNDFXzYxnZ8ogEjb2sQDGUL1YqlvBiNbiyUJwUpa4PtkfAH4zfGOJ6kZSTPMQjUkyIGcpFKAoLV+eOtYukyZp8sfuywtAEzdxeWX68xh4ni/IjVXpriE0VRYmaufiYQrg41fx4jKwwPkkdJ56Zyx8br44HLwIxgAvCAAsoYcsCU0EukLT3NPTAX+qRCMAHcpADRMBVoxmakTo4IoXPRFAMfodIBBTD80IHR0WgCOo/DWvVT1eQPThaNDgjDzyBuABEg3z4Wzk4SzrsLQU8hhrJP7wLYKz5sKnG/qnjQE2MRqMc4mXpDFkSw4lhxChiBNEJN8WD8AA8Bj5DYPPA2bjfULR/2ROeEDoIDwnXCZ2E21MkJfKvYhkHOiF/hCbjrC8zxu0hpzceigdCdsiMM3FT4Ip7QT8cPBh69oZariZuVe6sf5PncAZf1FxjR3GjoBQjSgjF8euZ2s7a3sMsqop+WR91rFnDVeUOj3ztn/tFnYWwj/7aEluMHcLasFPYOewY1gBY2EmsEbuIHVfh4TX0eHANDXlLGIwnD/JI/uGPr/GpqqTCrdat2+2jZgwUimYUqjYYd6psplySIy5kceBXQMTiSQWjRrI83DzcAFB9U9SvqVfMwW8Fwjz/l67kNQCBwoGBgWN/6WLgnj78LdzmT/7SOZyArwMjAM6WC5TyIrUOVz0I8G2gA3eUCbAANsARZuQBfEAACAHhYCyIA0kgDUyGdRbD9SwH08FssACUgnKwAqwFG8AWsB3sBvvAQdAAjoFT4CdwAVwG18EduH66wHPQC96AfgRBSAgdYSAmiCVih7ggHggbCULCkRgkAUlDMpEcRIookdnIN0g5sgrZgGxDapAfkKPIKeQc0oHcRh4g3cifyAcUQ2moAWqO2qOjUTbKQaPRJHQSmoNOQ4vRhegytBKtRvei9egp9AJ6He1En6N9GMC0MCZmhblibIyLxWHpWDYmx+ZiZVgFVo3VYU3wn76KdWI92HuciDNwFu4K13AUnowL8Gn4XHwpvgHfjdfjrfhV/AHei38m0AlmBBeCP4FHmEDIIUwnlBIqCDsJRwhn4G7qIrwhEolMogPRF+7GNGIucRZxKXETcT+xmdhBfETsI5FIJiQXUiApjsQnFZJKSetJe0knSVdIXaR3ZC2yJdmDHEFOJ0vJJeQK8h7yCfIV8lNyP0WXYkfxp8RRhJSZlOWUHZQmyiVKF6Wfqkd1oAZSk6i51AXUSmod9Qz1LvWVlpaWtZaf1ngtidZ8rUqtA1pntR5ovafp05xpXFoGTUlbRttFa6bdpr2i0+n29BB6Or2QvoxeQz9Nv09/p83QHqXN0xZqz9Ou0q7XvqL9QoeiY6fD0ZmsU6xToXNI55JOjy5F116Xq8vXnatbpXtU96Zunx5Dz10vTq9Ab6neHr1zes/0Sfr2+uH6Qv2F+tv1T+s/YmAMGwaXIWB8w9jBOMPoMiAaOBjwDHINyg32GbQb9BrqG3oZphjOMKwyPG7YycSY9kweM5+5nHmQeYP5wcjciGMkMlpiVGd0xeit8QjjEGORcZnxfuPrxh9MWCbhJnkmK00aTO6Z4qbOpuNNp5tuNj1j2jPCYETACMGIshEHR/xihpo5myWYzTLbbnbRrM/cwjzSXGa+3vy0eY8F0yLEItdijcUJi25LhmWQpcRyjeVJy99YhiwOK59VyWpl9VqZWUVZKa22WbVb9Vs7WCdbl1jvt75nQ7Vh22TbrLFpsem1tbQdZzvbttb2FzuKHdtObLfOrs3urb2Dfar9IvsG+2cOxg48h2KHWoe7jnTHYMdpjtWO15yITmynPKdNTpedUWdvZ7FzlfMlF9TFx0XissmlYyRhpN9I6cjqkTddaa4c1yLXWtcHo5ijYkaVjGoY9WK07ej00StHt43+7Obtlu+2w+2Ou777WPcS9yb3Pz2cPQQeVR7XPOmeEZ7zPBs9X3q5eIm8Nnvd8mZ4j/Ne5N3i/cnH10fuU+fT7Wvrm+m70fcm24Adz17KPutH8Av1m+d3zO+9v49/of9B/z8CXAPyAvYEPBvjMEY0ZseYR4HWgfzAbYGdQaygzKCtQZ3BVsH84OrghyE2IcKQnSFPOU6cXM5ezotQt1B56JHQt1x/7hxucxgWFhlWFtYerh+eHL4h/H6EdURORG1Eb6R35KzI5ihCVHTUyqibPHOegFfD6x3rO3bO2NZoWnRi9IbohzHOMfKYpnHouLHjVo+7G2sXK41tiANxvLjVcffiHeKnxf84njg+fnzV+CcJ7gmzE9oSGYlTEvckvkkKTVqedCfZMVmZ3JKik5KRUpPyNjUsdVVq54TRE+ZMuJBmmiZJa0wnpaek70zvmxg+ce3ErgzvjNKMG5McJs2YdG6y6eT8ycen6EzhTzmUSchMzdyT+ZEfx6/m92XxsjZm9Qq4gnWC58IQ4RphtyhQtEr0NDswe1X2s5zAnNU53eJgcYW4R8KVbJC8zI3K3ZL7Ni8ub1feQH5q/v4CckFmwVGpvjRP2jrVYuqMqR0yF1mprHOa/7S103rl0fKdCkQxSdFYaAAP7xeVjspvlQ+Kgoqqit5NT5l+aIbeDOmMizOdZy6Z+bQ4ovj7WfgswayW2VazF8x+MIczZ9tcZG7W3JZ5NvMWzuuaHzl/9wLqgrwFP5e4lawqef1N6jdNC80Xzl/46NvIb2tLtUvlpTcXBSzashhfLFncvsRzyfoln8uEZefL3coryj8uFSw9/537d5XfDSzLXta+3Gf55hXEFdIVN1YGr9y9Sm9V8apHq8etrl/DWlO25vXaKWvPVXhVbFlHXadc11kZU9m43nb9ivUfN4g3XK8Krdq/0Wzjko1vNwk3Xdkcsrlui/mW8i0ftkq23toWua2+2r66Yjtxe9H2JztSdrR9z/6+ZqfpzvKdn3ZJd3XuTtjdWuNbU7PHbM/yWrRWWdu9N2Pv5X1h+xrrXOu27WfuLz8ADigP/PZD5g83DkYfbDnEPlR32O7wxiOMI2X1SP3M+t4GcUNnY1pjx9GxR1uaApqO/Djqx13HrI5VHTc8vvwE9cTCEwMni0/2Ncuae07lnHrUMqXlzukJp6+1jm9tPxN95uxPET+dbuO0nTwbePbYOf9zR8+zzzdc8LlQf9H74pGfvX8+0u7TXn/J91LjZb/LTR1jOk5cCb5y6mrY1Z+u8a5duB57veNG8o1bNzNudt4S3np2O//2y1+Kfum/M/8u4W7ZPd17FffN7lf/6vTr/k6fzuMPwh5cfJj48M4jwaPnjxWPP3YtfEJ/UvHU8mnNM49nx7ojui//NvG3ruey5/09pb/r/b7xheOLw3+E/HGxd0Jv10v5y4E/l74yebXrtdfrlr74vvtvCt70vy17Z/Ju93v2+7YPqR+e9k//SPpY+cnpU9Pn6M93BwoGBmR8OX/wKIDBhmZnA/DnLgDoaQAwLsPzw0T1nW9QEPU9dRCB/4TV98JB8QGgDnaq4zq3GYADsNnPh9whAKiO6kkhAPX0HG4aUWR7eqi5aPDGQ3g3MPDKHABSEwCf5AMD/ZsGBj7BOyp2G4Dmaeq7pkqI8G6wNUiFrhuLMsFXor6HfpHj1z1QReAFvu7/BfPsiMZPRd6ZAAAAimVYSWZNTQAqAAAACAAEARoABQAAAAEAAAA+ARsABQAAAAEAAABGASgAAwAAAAEAAgAAh2kABAAAAAEAAABOAAAAAAAAAJAAAAABAAAAkAAAAAEAA5KGAAcAAAASAAAAeKACAAQAAAABAAADpqADAAQAAAABAAAB+AAAAABBU0NJSQAAAFNjcmVlbnNob3R0uf63AAAACXBIWXMAABYlAAAWJQFJUiTwAAAB1mlUWHRYTUw6Y29tLmFkb2JlLnhtcAAAAAAAPHg6eG1wbWV0YSB4bWxuczp4PSJhZG9iZTpuczptZXRhLyIgeDp4bXB0az0iWE1QIENvcmUgNS40LjAiPgogICA8cmRmOlJERiB4bWxuczpyZGY9Imh0dHA6Ly93d3cudzMub3JnLzE5OTkvMDIvMjItcmRmLXN5bnRheC1ucyMiPgogICAgICA8cmRmOkRlc2NyaXB0aW9uIHJkZjphYm91dD0iIgogICAgICAgICAgICB4bWxuczpleGlmPSJodHRwOi8vbnMuYWRvYmUuY29tL2V4aWYvMS4wLyI+CiAgICAgICAgIDxleGlmOlBpeGVsWERpbWVuc2lvbj45MzQ8L2V4aWY6UGl4ZWxYRGltZW5zaW9uPgogICAgICAgICA8ZXhpZjpVc2VyQ29tbWVudD5TY3JlZW5zaG90PC9leGlmOlVzZXJDb21tZW50PgogICAgICAgICA8ZXhpZjpQaXhlbFlEaW1lbnNpb24+NTA0PC9leGlmOlBpeGVsWURpbWVuc2lvbj4KICAgICAgPC9yZGY6RGVzY3JpcHRpb24+CiAgIDwvcmRmOlJERj4KPC94OnhtcG1ldGE+CsW4XcsAAAAcaURPVAAAAAIAAAAAAAAA/AAAACgAAAD8AAAA/AAAnrpJXaoLAABAAElEQVR4Aezd+bdsR3ke/mayAzEmNjghNoSLMQKDxGCQLBDDBYNAoAE0gBASEkOIFSAkJln5CxL/FHsla9nYBMOVrq7EoFnGDAahhFnMIIEEYg6JIcSxHQfHI9/9Kb4lWkdn2LVPz/uptfr2OX37dO/9vFVvvc871V2+973v/WCSEQSCQBAIAkEgCASBIBAEgkAQCAJBYEkI3CXEdEnI52uDQBAIAkEgCASBIBAEgkAQCAJBoCAQYpqJEASCQBAIAkEgCASBIBAEgkAQCAJLRSDEdKnw58uDQBAIAkEgCASBIBAEgkAQCAJBIMQ0cyAIBIEgEASCQBAIAkEgCASBIBAElopAiOlS4c+XB4EgEASCQBAIAkEgCASBIBAEgkCIaeZAEAgCQSAIBIEgEASCQBAIAkEgCCwVgRDTpcKfLw8CQSAIBIEgEASCQBAIAkEgCASBENPMgSAQBIJAEAgCQSAIBIEgEASCQBBYKgIhpkuFP18eBIJAEAgCQSAIBIEgEASCQBAIAiGmmQNBIAgEgSAQBIJAEAgCQSAIBIEgsFQEQkyXCn++PAgEgSAQBIJAEAgCQSAIBIEgEARCTDMHgkAQCAJBIAgEgSAQBIJAEAgCQWCpCISYLhX+fHkQCAJBIAgEgSAQBIJAEAgCQSAIhJhmDgSBIBAEgkAQCAJBIAgEgSAQBILAUhEIMV0q/PnyIBAEgkAQCAJBIAgEgSAQBIJAEAgxzRwIAkEgCASBIBAEgkAQCAJBIAgEgaUiEGK6VPjz5UEgCASBIBAEgkAQCAJBIAgEgSAQYpo5EASCQBAIAkEgCASBIBAEgkAQCAJLRSDEdKnw58uDQBAIAkEgCASBIBAEgkAQCAJBIMQ0cyAIBIEgEASCQBAIAkEgCASBIBAElopAiOlS4c+XB4EgEASCQBAIAkEgCASBIBAEgkCIaeZAEAgCQSAIBIEgEASCQBAIAkEgCCwVgRDTpcKfLw8CQSAIBIEgEASCQBAIAkEgCASBENPMgSAQBIJAEAgCQSAIBIEgEASCQBBYKgIhpkuFP18eBIJAEAgCQSAIBIEgEASCQBAIAiGmmQNBIAgEgSAQBIJAEAgCQSAIBIEgsFQEQkyXCn++PAgEgSAQBIJAEAgCQSAIBIEgEARCTDMHgkAQCAJBIAgEgSAQBIJAEAgCQWCpCISYLhX+fHkQCAJBIAgEgSAQBIJAEAgCQSAIhJhmDgSBIBAEgkAQCAJBIAgEgSAQBILAUhEIMV0q/PnyIBAEgkAQCAJBIAgEgSAQBIJAEAgxzRwIAkEgCASBIBAEgkAQCAJBIAgEgaUiEGK6VPjz5UEgCASBIBAEgkAQCAJBIAgEgSAQYpo5EASCQBAIAkEgCASBIBAEgkAQCAJLRSDEdKnw58uDQBAIAkEgCASBIBAEgkAQCAJBIMQ0cyAIBIEgEASCQBAIAkEgCASBIBAElopAiOlS4c+XB4EgEASCQBAIAkEgCASBIBAEgkCIaeZAEAgCQSAIBIEgEASCQBAIAkEgCCwVgRDTpcKfLw8CQSAIBIEgEASCQBAIAkEgCASBENPMgSAQBIJAEAgCQSAIBIEgEASCQBBYKgIhpkuFP18eBIJAEAgCQSAIBIEgEASCQBAIAiGmmQNBIAgEgSAQBIJAEAgCQSAIBIEgsFQEQkyXCn++PAgEgSAQBIJAEAgCQSAIBIEgEARCTDMHgkAQCAJBIAgEgSAQBIJAEAgCQWCpCISYLhX+fHkQCAJBIAgEgSAQBIJAEAgCQSAIhJhmDgSBIBAEgkAQCAJBIAgEgSAQBILAUhEIMV0q/PnyIBAEgkAQCAJBIAgEgSAQBIJAEAgxzRwIAkEgCASBIBAEgkAQCAJBIAgEgaUiEGK6VPjz5UEgCASBIBAEgkAQCAJBIAgEgSAQYpo5EASCQBAIAkEgCASBIBAEgkAQCAJLRSDEdKnw58uDQBAIAkEgCASBIBAEgkAQCAJBIMQ0cyAIBIEgEASCQBAIAkEgCASBIBAElopAiOlS4c+XB4EgEASCQBAIAkEgCASBIBAEgkCIaeZAEAgCQSAIBIEgEASCQBAIAkEgCCwVgRDTDv6/+7u/K4+/+qu/Ks93uctdJne9613Lzz/4wQ9uF5DX/N/f/u3f3v6a3+92t7uV17a+15t8dh07vdff+9ut793uGrZ7b70ufz99DbN679b79X1br7dew7zfe4973GPiAUuPjCAQBIJAEAgCQSAIBIEgEATWH4EQ006Gf/3Xfz35/ve/P/nud787+cu//MtCSn/8x398gqhOE61KiLxeB0K23Xt/7Md+rLxl+r2Iotd9xzQJbX0vUuia67j73e8+8ajEur7uunzPdu91DZXEInje6177vvdv/uZvJh51wMb9bfe5270Xbt5bR8XR92/9XNdXcbzvfe87ud/97lfuN8S0opfnIBAEgkAQCAJBIAgEgSCw3giEmHby+9M//dPJN77xjckHPvCByfe+973byRyyhTDVgTAhc16voxK/re+tBG8e70XIENE6EEoPr01fr2vY6b2uqxK7SnT97Xafu917kVCPOmADi77v3QlH37/1c6ffe+yxx05OOOGEyb3vfe873Gu9jjwHgSAQBIJAEAgCQSAIBIEgsH4IhJh2MkNGv/CFL0yuvPLKybe//e3bieleJIm4KzHd+t7tiCnyiMAhb1sJpM/yeh27vXcnsukatn7uTu/djkCuAzE98cQTJ6eeeurkZ37mZ+5wrxW3PAeBIBAEgkAQCAJBIAgEgSCwfgiEmHYy+5//839Obrrppsmll146+eY3v7l+UhzRFT/nOc+ZnHnmmZP73//+d4isjgiC3GoQCAJBIAgEgSAQBIJAENg4BEJMO5H+r//1vya33nrr5NChQyWld+OkvEE3FGK6QcLMrQSBIBAEgkAQCAJBIAgEgf8fgRDTDgipvCKmR44cScR0xZdGiOmKCyiXFwSCQBAIAkEgCASBIBAEBiAQYtqBhpjefPPNk0suuSTEdMAkWuSfhJguEu18VxAIAkEgCASBIBAEgkAQWAwCIaYdzlJ5b7nllslFF12UVN7FzLvB3xJiOhi6/GEQCAJBIAgEgSAQBIJAEFhZBEJMO9FofvT5z3++ND/61re+tbLCyoVNJiGmmQVBIAgEgSAQBIJAEAgCQWDzEAgx7WQqYuq4mMOHDydiuuJzPMR0xQWUywsCQSAIBIEgEASCQBAIAgMQCDHtQAsxHTBzlvQnIaZLAj5fGwSCQBAIAkEgCASBIBAE5ohAiGkHrlTez33uc5PLLrtsklTeOc62GXz0c5/73MkZZ5yRc0xngGU+IggEgSAQBIJAEAgCQSAIrAoCIaadJPbT/Ogud7nL5G53u9vkHve4R3leFcFu6nWcdNJJk9NOO21y3/ved3LXu951U28z9xUEgkAQCAJBIAgEgSAQBEaFQIhpJ+79HBfz0z/905Pjjz9+cr/73W9yz3vec1STZxk3+/M///OThz70oZN73eteE06BjCAQBIJAEAgCQSAIBIEgEATWH4EQ006GUnlvuumm0pX3m9/8ZpNUDxw4MHnZy142edCDHjS5z33u0/S3eXM7AqKkd7/73Uu0NMS0Hb/8RRAIAkEgCASBIBAEgkAQWEUEQkw7qfzxH//x5NZbb50cOnRo8vWvf71JTiJ4F154YYhpE2p5cxAIAkEgCASBIBAEgkAQCAJB4EcIhJh2WOwnYhpi+qPJlJ+CQBAIAkEgCASBIBAEgkAQCAJDEAgx7VBTY1rPMW1N5Q0xHTLt8jdBIAgEgSAQBIJAEAgCQSAIBIEfIRBi2mGxn668IaY/mkz5KQgEgSAQBIJAEAgCQSAIBIEgMASBENMOtf2cYxpiOmTa5W+CQBAIAkEgCASBIBAEgkAQCAI/QiDEtMNCxLSm8n7jG9/4ETo9fgox7QFS3hIEgkAQCAJBIAgEgSAQBIJAENgFgRDTDpwQ011mSP4rCASBIBAEgkAQCAJBIAgEgSAwZwRCTDuApfJ+/vOfL+eYfutb32qCPBHTJrjy5iAQBIJAEAgCQSAIBIEgEASCwJ0QCDHtIEnzozvNi7wQBIJAEAgCQSAIBIEgEASCQBBYGAIhph3Ujou5+eabJ5dccskkx8UsbO7li4JAEAgCQSAIBIEgEASCQBAIAgWBENMOBsT0pptumhw5ciTENAsjCASBIBAEgkAQCAJBIAgEgSCwYARCTDvApfLeeuutk0OHDk3SlXfBMzBfFwSCQBAIAkEgCASBIBAEgsDoEQgx7aZAmh+Nfh0EgCAQBIJAEAgCQSAIBIEgEASWiECIaQe+VN56jmlqTJc4G/PVQSAIBIEgEASCQBAIAkEgCIwSgRDTTuxSeb/4xS9OLr744qTyjnIZ5KaDQBAIAkEgCASBIBAEgkAQWCYCIaYd+lJ5P/e5z00uu+yySc4xXeZ0zHcHgSAQBIJAEAgCQSAIBIEgMEYEQkw7qYuY1lTeND8a4zLIPQeBIBAEgkAQCAJBIAgEgSCwTARCTDv0U2O6zCmY7w4CQSAIBIEgEASCQBAIAkFg7AiEmHYzIF15x74Mcv9BIAgEgSAQBIJAEAgCQSAILBOBENMOfam8t9xyy+Siiy5K86NlzsZ8dxAIAkEgCASBIBAEgkAQCAKjRCDEtBO7VN6bbrppcuTIkUmOixnlOshNB4EgEASCQBAIAkEgCASBILBEBEJMO/BDTJc4A/PVQSAIBIEgEASCQBAIAkEgCIwegRDTbgoklXf06yAABIEgEASCQBAIAkEgCASBILBEBEJMO/DT/GiJMzBfHQSCQBAIAkEgCASBIBAEgsDoEQgx7aZAjosZ/ToIAEEgCASBIBAEgkAQCAJBIAgsEYEQ0w58qbxf+MIXJocPH05X3iVOxnx1EAgCQSAIBIEgEASCQBAIAuNEIMS0k7tU3s997nOTyy67bPKtb32raSb8/M///OTCCy+cPOhBD5rc5z73afrbvDkIBIEgEASCQBAIAkEgCASBIBAEJpMQ024WiJh+8YtfnFx88cWJmGZVBIEgsHQE/u7v/m7y13/915Pvf//7k7/8y7+c/NVf/VV5/Pmf//nk//7f/1t+dpH/5//8n/K+rRd817vedfKTP/mTk3vd616Tv//3/355/NiP/djE4+/9vb9Xfvcej4zVRuAHP/jB5G//9m/LXPh//+//lflgDpgXfjdHtpsH5PwTP/ETZQ54Ng/q8z3ucY+Nl701BKO6fjxbP9YS3GDod+ts67jb3e42ufe9710wg6N1A7sf//Efv30Nec37MhaPANlWOVbd6NlaIFfPxl/8xV+Ux3ZXaD2Q513ucpciZ7rSg1ytD/9X5R09uR2C83+N3qtr2LO1Ss7WLRlbx0bVh1uviGyt47vf/e7lcc973rOs47qmybrK2HPGaiAQYtrJITWmqzEZF3EVjDyb2n4HhZfN6ocorhum5O+aWwd5k/ssh+vwsAHXDffP/uzPJn/8x39cHGZ/+qd/WjbgamBVYvI3f/M35TK87m+nh2tkMNcN1ybsYVP2YJD9g3/wDyY//dM/Pbnvfe87+amf+qnyms171vc3fV2r/PPQOeGeZj0v6npifJkLHKf2KHMBAWWQVYLFUGOwbTcPGNfkbh54ZnTL6vkn/+SfTH7hF35hcv/7378Y4Kssl77XRn718b//9/8u68cagld9VGPW2oGbtWTNWT/+dnqQqbUCOzhaG/BDTj04fRi8nq2fn/mZnynv8XceGftHoK4Dn0Q+5GU9/Mmf/El51PVR1wRZVv1oTRhe86ij7ttkbk1UnUfO9YGs0JFVvuRNX3qQt/fRr5FzRXU2z2RsXdJldB05k7dHXcP+b1rO3m9U0lqvpMrGHCLnKi+yqzqRnOta9kze1rz1TM5eM+qcqZ+d5/kjEGLaYZyuvPOfaKvyDTYkyo2ys4kNGRRaNfIowLEa8xU7m4KNZDvjuL5nr2cbRjUE9nrvfv6fUVoNmkru9vo8mxp5V6Nkr/f3+f9KRs3BSjRsxN/5zncm3/3udyff/va3J//jf/yP2z3DsK3G1l6fbz665q33Z9OdJig/+7M/W0jKAx7wgGJY24jdp/eNIaI2jSN8GT/mRt9Rca7EvhpDff9++n11PpCx+eBazAVz4Jvf/GZ50FkiA+aMx1YyNf152/1sTpDxwx72sMmznvWsyeMe97gi6+3euw6vVeICC/KrMoTXf/tv/608Kpmvst26JmBSP2eve/beacKC5N/vfvebWD9Keqphaw1V0uNvMtoQqGsBAbEeq3zpxz/6oz+a/Pf//t/L2pgmLd63VbbbfWtdszu9t/4/WXqQsWdOHPrSs9fMg+q4YA+Q837W/3bXuumvTcuZrK1RMuVYovfImUOuytmzNb7VEbsdTtUu2+m9/t8eR7b29SprP//cz/3c5B//4388+Uf/6B/d7tSrsq6fu9135rXZIRBi2mHJI33rrbdODh06lFTe2c2tlfwkiu3rX//65L3vfW+R+ZCLZIgcc8wxk4MHD97ujRvyOZvyNzaQD37wg5PPf/7zZVMZcl8PfvCDJ8cff/zkhBNOGPLnvf9GFOWTn/zk5AMf+EC5VpvjXgPx+KVf+qXJL//yLxfjZK/39/l/G6YN+Mtf/vLkq1/9aikl+NrXvlYMMYTDw7UxeLx3pw22z3dNv4fhVTfleu+cAiKnBw4cmDziEY+YPOpRjyobs9fHMpCZD33oQ+XR955FW0RRTjrppMmjH/3oogv6/u3W95G3uWkOWEef+tSnisOUvpqeD2RW5bb1M/r8TvaMsHPOOaeQUwbXug7REiTe3k2ne9x8881lDTF06xqqmO0Ht4qR9bP1YR4gJyLRek085CEPmTzykY8spBWByWhDgK5DQqxJvT+sCb0/kJS6FuYh2+mr3Cpj66bqTbqSrMmZQ4LepAfMgYz+CHAOcDawH6zdT3/600XWXqtynl67Xpv12Cpnv5MzvSgLgl3iIcOEnL2O0GbMF4EQ0w5fCu+mm26aHDlypCjDFsjT/KgFreW/lzLkmUNMkSkKsXVQTg996EMnz372s4tBWlM+Wj9nE95fid4VV1xRDOu+Ub1675Q8DzTjHvmznuY5OKGQ0ne84x23Gzp7fR9DBCk98cQTyya11/t3+n/Y2HS/8Y1vFDJq7omKVY+waNhWAmqjnIVBvfWapj+3bsSiPAwsUQFeY5sxefAeI8j+ZlMHWbznPe+ZvPvd7y4y6IM5vBgrp512Wpm7fm8dZC46gFAxxBlpokIt0YHW76SvXvziF5c1t27E1Pqgv0VEv/KVr5QHvKyrGnHxnj7ya8Vtt/dbGyKlsKXPKnmpBq3fYW2tZdwZga26kY5kl9HX1ggHBGfDsgc514ypKut/+A//4e0ERlSVDqULEi2/s7TIkUOWbK1fDgfrlx3hdbLeKZp950+b3yvWKTnXDAnOaXK2NyKq9kVyHltm0fwQv+Mnh5h2eFgkDINLLrkkxPSO82PjfmOw8LxxRNxwww3lMSQtjqHx2Mc+dvL85z9/8sAHPrCkfGwcWLvcEBxtIKI773//+yfve9/77kSqdvnz8l82eQofjogphT9vko8I/pf/8l8m1113XYlI9TFg1WI+4QlPmDz3uc8tXvK97mv6/ytONl3GtOiODVmqrhICG/VWMjr994v62UbsWuuGzLg+0JEuhrUokI3YnBdFJTePTRqI6Tvf+c7isKh1S3vdHyxgc9ZZZ02OO+643hFTOPsO+46IuTlh//E7csVIr5Hyva5hyP+vIzGt0RVGrAwDD5E0RF5U2f/3WctD8Gr5G+uC7Dxqmq91ZP2IsonCIKj+f9PWUAtO3lt1I51MH5LpKurGne6L/OhL8pT2KZOKjNkDHHtIKoLqPWMe7K3qeCBfclauUp0P0rBXwemwk4zIWVYEOdsDa+o+e4XT1jqvTqexr+mdMGx9PcS0Q4xX7pZbbplcdNFFSeVtnUFr+n4RiRtvvHFy5ZVXlk0ROW0ZNY3vvPPOK9ESBsdYlBKDAplSvyXKdP311zc7dGBt02awnXHGGSU1Ghma92DIIqZ/8Ad/0ERMEY9TTjmlELW+1wijuiEjH5/97Gcnn/jEJ4p3GIbmyyqQ0p3uB/HiFeYpftrTnjb5xV/8xWJYiwwxtjZpvg8hprzl1v25555bUtD7REwZaYiUCAGnzkc+8pHJl770pRLx20kOs3ydzCoxlfHBoFrVYY3AC4kXEb3tttvKGpLeiczAcdWHfQLeHDxS5KX4IixeM382aQ31lUXdP+y5HHZSODmKnSVvXayDbtzuXsmaExM5VRKhhhtxoS85IsZIUGu6fXXCfexjHyu2NgfcqjiTtpPlTq+Ro3Urkvrwhz98cvTRR5d90ZomZ3NgjGt6J7yGvh5i2iGX5kdDp8/6/h2Dh5eWovz93//9Yuh4rWVQUIyNU089dfL4xz++KKWWv1/X98KJlxOxFyllKNpkWod0aCmyz3ve84qBTKnPe9ggRcqvueaaXsSUMYEwu1Z1echZ30Gv8A6rXXQcle9GVFeZjE7fmw3WRoygwsAmzNgS4bYxL0Je09czz59bial5ARcR/xZiyhhXP8qZg2ghXOZEq+4ZigWZ8vC/8IUvnDzjGc9YaWJanV+I+4c//OFi0E6vIQRmHYa5Yq9Q2yvCfuyxxxZnJtIyxrpEe4XIN2ed/UM6J6IiarYuunGneUdf0ov0o7TPJz7xiUXWIqh9HFc7fe66vk6vcjrQeaKl9F2t/17Xe6JDPaxda5pznZz1HeGoHOOanrUsQ0w7REVMeesOHz6ciOmsZ9gKf540SpsiYspri0i0DMpJF7enP/3pk6c85SnFS9ry9+v6XqRUGt1VV11VjAvGYsuAG4WuZvOpT31qiSZUZd/yOUPea60jpldffXUvYlqvFTFFQHjCdxsIho0XWRcRY1RzgNiQ+6aI7vb5y/g/hrUHEsbAsgE/5jGPKSlri4hyL+KeW4mpa0JMpXYheZp2mdM7DYTU3Pv4xz9emm9J4a1Rg53+Zh6vm8+MJ9f8K7/yKytJTK0h2RjWDqOWQUtPi66t6xoiS2sIYZGBIHLK0aNDMkfBJjl5dpq3ZKeGkJOObkRMpXOuSjnDTtc95HWyRkRF0kRQyZlDYgzEhePB+q17IAecDAf6bt0dD1vnAkeE7AdOiANdyr41zUawxseaEbEVoyG/h5h2qIWYDpk66/83DCAbJWNRMySb5ZBaB0YGj1lNjaOsNnXYWBAtKYgIvdSrlmgpw5hBL/J48sknl83a74saaluk8l577bW9iKnrsvEwLDSMsem4h+2GyFftJvlf/+t/LfNJZGCTNmPeYMaWSLdsAbhIBzXnd8JlO6xW7bUhxLRioc5cR2lpz9sNKae1wZG5h2gxxpcxVpmYWifWEKOWMat7NuOWwxCpWZcIaR+5MmTpQA3fPCOniMw6r6Hd7tsaoHvJVfQMOd003bjd/dOLUjxFyp/0pCcVhx5Z1/Te7f5mnV9jT3FU03FV17GvF5URsizsrFuOSWuZA6KS002V87xxDjHtELbx2QAvu+yy4pltAV0Y/8ILLyyKZ1OiBy33v+7vpTBFM0TQdOS0WbYOUVMKSRTiQOc1o4w21cCw8TAY1eYyMlojGEioOhwNY6SFMtAWOZBqpLGlxrQS07PPPrtEOrY6HhjMHuYOg8s8gg2sNnWQoSNSnIdJB657au8QYoqQ1+7c5vJ2xBTZEhWS9q5JmDlC3yxrrCIxrYQTWUfgRUml7kqDF2XZ1GHNICw13VNTlUU66RaBK9laAyLe1sC73vWuQlyGOIAXcb3z+g4RcfqB85pDT+OcmmGxCbYCObOlZDnIPuO4tgduOiHdOl+sX45bPSk4b61v69zYBDlvvd95/R5i2iHLo5PmR/OaYqv9uRSqh9Q6KZ4iaTZSr/Ud0nak9ElvPPPMM0uK41by0vezVv19HDgMbDVyohstOLk33QsRGnWlyzDEOKF4cvvWmLrmvYipzVc0AC4f/ehHCxFZZN2ga1z0ML85ZDhinvnMZxZjS5rauo4hxFTElGPl9NNPL12btyOmDHLzwpwz9xjkrWtmlpiuIjG1fqwXzcEYtJ5FTRH4TTZs7RsMWQ5tXb+lg0uT36Qhm4azjjOQQ5Oe9Noy18Cy8EVO6UxZJjIslP/QIZuQxs2ppOs8h6+yOA44a3psg36tzZHImYw5nqxz6z2jHwIhph1OUg9qjamz5FpGIqYtaK3ue3nmpfI631LtS6unnuJhmOswi6Dymm3SEBlV46ULr3NAv941NWgdDDCkVIdXtRgI36KV9ZDjYioxfcELXlAipjaeOqSocWw5E1dEQO3tftM0YeI7ROSk93n2MMcM/zd9DWRTI9eMeQ/X5eFn/zcPA991wka2gA2YTBcdAa9y2O+z+dxyXAwDhFHJIcUZhVRME1MEVC22EgFki+Orymi/17qfvyczNW/INJmZV8scjFflAPbfz3zmMyVayqid5Xy1hmSx1HVUf/caUuBR9RCnJOJUH+RY15PrlAUx6/VUZUI3irTo4Cuats7OTfJTV8+eohs5NHVEn/UaqLKc1pN+pis9YGitTpM/pLjK2fwj06or63PVm/Mg0FJ5jzrqqCJr0VPO2unrW+Z6bPlu2JBzTb3X5E+2AwfcrEkpXSvy6FHXMflWYl/X8fSacW1VzuRqX65reVrOrYGIvhjpyUC+nBAcTvaH6X277+eM8X0hpp3ULSQL6tJLL20+9iLEdHOWDW+uDVQ07eudodqSbmTzoxSlbzz5yU8uHnCK0+vrPih4tZMMR8TdWvFay4AN4nLw4MFCTGFTjcGWz9nve6UKil65D+u+j+FRiSmng3tw7YZNTmpwdWgwvBi0LaMaTT7Thsuo8uBZt5H5boTeo6YE+X8bch2MgGoIIEOcKowFMvOzZ8aXn81p1zhLA5Fsbb6iPua/65w2EOp1rvLz1wcQUzKT0ryVmMKXsxMZffvb315SUveLNzytl2qAeWbkeK5Ym0t1TVmf5rZHNc5cg9+lETqTt+Xs1XnIzvqpqbvICxkgM/sZdT1ZS9aOtcJAJCfryTqaXlPWUTVufa/1UR/wYsxaU9aTtU6udV0xbq0774PxfgfHpto03ZKRU9daZbvfz17U39c5By9ZaJwyHHbk6v/2M2BBVlVP1vVHvlVfeiZfTgfP1oc54e88G66jyph8XVuVqWeP+hrZm6dVzq373nb3a426Ps5rpRC6nJO99Vyvcbu/W7XXYFHlLPVeFtUsSF7Vc9ZuXcccNQi9dWxdkLN9Bo5wq+t4mvi5FnK2PuueWPdD1+1nznbP5kFdz/T3fudqlRWdgyNo9Fhryc3JjN0RCDHt8OEJFSU7dOhQ2Rx3h+yO/xtiekc81vk3CskmdMkll5SUTEZT66AsRSJEJHQwXTfDYrv7pdylJMLFOhEhbBk2Gricdtppk4MdMXUA+bKGa7+hoSuv62TgSMvZSkxhwkusphTJtQG2jGow2WhhQpcgDYwUm7DN12CATW+4e30Hg8FcJjfz2T2L5Go6IhpF37neWQ4GhI1XIyDNwMh7nQZS1BIxdW9kQlZbiSmjh7NCWpv1wrjdz7B+zEEYM9AqyarPdZ64njpPGNIMMw+GNgPMw7X5O+tQhG6ZRlJdP3A3H13rfob15P4Zg2p/3Z/ocCWksKtEpeV76nqyvuEn64LTQQ2d9EW/71fGroecGeOOHkNORVvIfJ0Gg57ukbYrhZ1+nIWhbx+1BmRk0JF0pVIQc7muDVjtZ781/1wrOVsr5ic5051+pkeRl1mOhzzkIaUzvc7+si/MgXUZcLKn2E8duzeLngruH8nkbDjQlYmILNdooz3FXuj/yXkoVlXG9kd7oUZNZGw9cz5Z4/5vVsP1ug/OQM3O6KOM3REIMe3wsSkmYrr7RBnD/9aNSU2MlFWbKsO+ZVBCCt5Fjygim+Yyjb+Wa9/uvTCxKaudVH9LaVPsLYPhLDqjFtGh1IyvZY0hEVPX68zBCy64oHi3GcA2NGfwiQhobmOT7utltakinuaJDctnezCyfFclGHXe+L6WTdh11Aej2rWZxzzDjCvGtI2Y0SXKOyuDgjFBvieddNKEweV+1mXMgphyMFgvMgtE5UURGLJeaxnkbY7UeSGy4mfrqEYLqrPCHJmeJ/7WqPL37PvNAevWw1yqUab6/pbr2+97GX0ij4hLXT/7MQTrekJCZTRw8jiuwT3CqWLkfe639Z6nsYSfayVXUTX3YS194hOfKEatNWbNDR1VNvYPtWmaaq3TEHli4HPWIS0IHvyGDjLj4OVoONARFTImW2uhytZ7PGDXKtvp65qWs/XCueN+6EeERTMuzX3o+yH74PR31Z/p+1oKoWtvTS+v/7+qz5xd5Kwzv33EOhg678kNDoi5fcOeaA3bPziTEFJreFrGQ9ZxxZKcXavnujeSs7XLccveIWu17tb50Puq3+dayVU2hGw6gQtz131nbI9AiGmHi0V18803l4hQaky3nyhjeLUqLApKHSVyypvWYlhSNpSpVCxRU4qWgbSuAwHTZU+tHEXdgoV75sWuqYMiGCJMyxw2HqTBhsohReZ7DZuI6z7//PMLMUXykA5zxObc14tu87XZ8vQzsuBiAzY/ODD8/7wHI4ux6N4ZWOa3TRhh3+8mzHjgDZbW64EkrEvEZxbElPHBgL2hiyCYH617CYcEg9tcExkyRzxzYpgjsPSoRs0QI7zqOH+7DMOIsS/CKMLi0bJ+tq4N68V8g5MH0iKSxsBdhIGPoDJo2Q+Mc+uIzBm21thQg5Zc3IteBZybiNgidMNWfFt/pz/cO/1KttbCEAzMTXPcnCdPe6l9FA70ZyUqrdc35P11vSCiSn049ehNsnav9OiQe5y+FvfEoSdq6nnZe+T0tW33szXMGSN1l2OJjdDqrK6fS5ZqbK1fe2F9tobNAWR0EYOc2TZsP+uZw1awyrO9keyR2P0M81natvOjZWDZ84fo8P1cw7r8bYhpJylRhHTlXZcpu5jrZDAhHtrb8w62bD4MC5sND+hTn/rU4u2tKXaLufr9f0vdkKUkMjREN/oSsPrtNhUGFpIiimazqdGd+p5FPzMk3E9LV95KTF/0oheVDYXBpR6dgdInou6ebUIiX7zjCLoNGOFY1Ma7Hc4MDIa0CB/ng59FgfazAdtozX1eYRFyhqWx6hvwfompCJd7FEXXgZT+6OvEoRsQKQapecFoYaCKknp9mXNku3kz9DXGKyNPJO26664rRn2f9bP1++hXuIikwUpdMyePaPIy9Qsjlh3hXGxZN9aS+6NLhwxOiec85zklcurnVd5DyNb9qyetTr8hZIX8OHbNfZEze6g9hGxXYVjT7AGBDOnKyAs5c1AMud96TwgaR4R9Ugq3PWfVhnnsgZzLEHBkHAfMkPu2hu2J9J37lRlgPXttFfQdpxNnhAg5Ges9QndZz331+nby41yRmqzkBRFfB4fTdvcx79dCTDuEGasmXs4xnfd0W5/Pp5gYl295y1uKkWEzahlSehkTJ598cknrpZDWaVC+iKj7Z2gx3FsHgqJbqc2WEmZYLZugIJWt55hWYqrG1EYCj741NQwtBJSBxVuKcFRPMCyWiQcjg1HBqGJg1NRkkYD9DHJmZHBInHvuucXQYIis8tgvMVU7BMM3v/nNJXrW14nDCKMb/L05AjeGuTlSMVvmHJmlzERWOPuQUiRmiIEHC0Y8Q5YzgFHLmK26ZZlYcV4yXDm66Qd6Qo1x37mwFWv3JCJ8zjnnFN2BrK3qMPfd7x/+4R+We+b0ah3WAudlla3UR/rW63UttH7mrN9fyRn7wD1z5tlPOHBlAgwd7lG2hHNOOfWqQ2/o583j7+r8VjtvHZvb8Ggd9kSOJbaBPcKeaA2TsfW7zDVc72VazqKoIsT0lswIch86qv5y5r1UfdlTGXdGIMS0w8RGUo+LEQVpGRTIhRdeWOrFVsWr13L9ee/2CFBM5oVIks2W56zFwKCAbKrIiONRKOGqeLf/xtV51QbEW2hNXH311YWgIy8tw0YrMljvXQriKhgXUnKkWtaITZ+NtRJTBhPDkxPL5+xmWLtX+sDGo75WQyARU6+tyuZLnu7ffYiS0n2ipwxMGzGZ98Fn67yomy+DQ5RZxIPRtcpjP8TUmbwcL7U23dzYK8PC/EBAGd/mhmeklMHGcFuFtTIrecGCIW/dSf0zx6yj1mEdIi4IqaiDKGnNwjDnVmG415quLHpq/3C/miO1Rpbck7lg73DP9A8DflXudRpvUSWZKLoriyDuNf+n/9bPHLkcNAcPHizr4UAXSUPK3esq3q/7ozOVRiCnsgDImh7xeqverLIWJYaBbr0cE6ukB6xhpR96TYgWsxFaBztAbwUNvug9ewM5sxdWVc7WLXIqUFGjpwjqbvv/bri4V3sjGbMNpPhm3BGBENMOjxDTO06K/PZDBChim2xthKSupHUwnBgW6k39bANe9YGQ2GClZNmAYNB32FzcIyIiUsoryIBclTGEmDIOEUqRT9jsFe1hTDCypO2K6CDoZL/qaTsMKvcmTU2zKxuxKFerkUXW5oHUVAa12ikOvFWe++b70K68jgIgW5EThH43BxZcvJcxogaXgaaxizor82YVjbP9rt1q1EmfR9aGRByQeAYtY5Y+5eQROV0lw73iZL0gLuwKDk1ryZqSmWWNtQ5zQ0Sdk8/900erMhjniLgoWmsKe70HsuXAoyeVvsg04qBZl8HJQn+ImoqUc/CZ80P0pvuWmn7WWWcVR9Wq7BnmMyKqtIkDwj22OB/oNY4lug4Zsy/UPXEV1/DWuedep0tfrGkkfUhmgM+GhfXsIYU7444IhJh2eNgwKBV1Y61pbImY3nFCbeJvIoeipor9KaLWDUcdlCYWjFAG6aoqYvflgZyoIXE8DCLW4hnkDazNHBwP495XiZC4NxsrQ8q67yNLm2o1BmGx04bsfbzcSLnoBiOLsbWq3uCd1irjWWTrhi7CJTrMyBoy3DdD67zzzisOCsTeWEXyxbBsJabmhHuyrhmn8NorKgYPkVERUml70jNFETZ1mEuwveKKK0pEqcXJBRO6kv4QYZDqzKClQ82tdRj0J5vCucmax/WJpm93XyLynHzKCValDs91csJoKHeoO2pPxLDVUCdHa0FK58EuUrhOsq1ysubtI/SkGlt2AtIy9AghjlwNcuwf9Msq2At1Hr/+9a8v63k351vFpT5XUkrvceKZx+tW2kS+VbdrjiQLQuTY3IdFHzui4lGfkXRYOG7MXrIKcq7XtuznENNOAjybaX607Km4ut/PmKrnsjHUWzdfhgQlxKhgYPEQr+KgXN0bzzfyJj1pJxK20/UzIqUjqaHwjKStksJFRt1bS/Mj91rJ1G4bkHu3+TKwRDhqaub03++E2yq9TuaMKlEeqXk3dIQLId/t3ne6frLXIp+hhayvKkkfQkzdi7XMESO7QlOQnYb54/3Wv4ifqEjNoFil9bHT9Q99XWRFavhb3/rWkvbY4uTynTIVEBeRBRkIiAsjrq7Hode1qL9zv3QqclobY9lPWteSyBnCot6Usw8uqzDYTqJHHH3IWMt9kSN5yiaiG0TB10m2Ff96z4iLXhRIC0x05q5kpr63z7NMAF2IX/CCF6yMvUA/It1XXXVVyXio99znfsxde6HUVaVNnHEcuOs0pu+XrpdJxNGk1lZ675DSBLYR3fbiF7+4ZAysU5bAvGUXYtohnONi5j3N1vvzbS6a5oiqq7nkJWtJyWJ4MiR4/JEWhsWqKWZkxH1qaCA6LGLK6GgZ7lNrf/epIyvFy9BYpTHkuJg+1+/ekY7axEY62rpHwsgfOdWRuXYZnd6g++DiPbDQ0INhIi1x1ea+axxCTJEj92KOVwLis7Yb1oL5ITKkPlLqor9fF4K13T3t9hp9IvWPE4hzg+5sHVLBpa7SJ7DjAEDu121YMwxXawgW0j2R0xbSQr+oxWPYn3LKKUXPLnsduSdkVDTcvTHW+w7znjw5HEQGpWlLb1znQc7mPXvSfBc5hUtrRM0c57TizFuVRkiItgghEtbimDdva7SfnDkfNkHO7D8lCTKLOPIFtlqdbuRc90bZM37O+CECIaYdDhSJBXfkyJFSyN4yOZLK24LW+r7XJozU2IR5RPumgdY7ZrxSylJZGFqr1mGRF5AhKZ2RshXpaFG0DA2bqY3Uhsq7v4pGpJbvjGWpda0yrLLc+mzzJduDndMB8aj3vu6koxpZnBWMEjWnUrpaB3yQMcRUpFBEYNWwGUJM++LgfmVMWBdSuxEumGzqMG/oExEF+kTmRYsxCxeYIWGMWc+iCauoT1pkKNVT0xQ9C2TetNRvWy+IqOwb5ykfe+yxRd+2fP+s3+v6yfZNb3pTSWMl875DpoGMmpe85CWlAc4mRYvsmzr0wkaTPXtOy/wna3jARzmMmsxlzn22z7vf/e7SoZ9DxfruO8xX0fBTTz219BnYJDnDgGMGaefM58htWQP+nvNaA6h//s//edkjliln17MqI8S0k4QJxfg61NVJMMhbRohpC1rr/V4KmrHFSOcRbdls3DlySklrBiO9kXG6CgY6T68NR3Mna4CR3qpgpbHaQBHvVU7Z5ISSmtqayrvTzCU/m4sa4urdXrUo8U7X3ud1RghDi9PuQx/6UElXbTFM6neolTIvdOlFzFYNo3kRU2tctM/cQLJWMYugymhWz6IJ9lRzRt0hB1DLQMAY5aII9KRUwFXQky33sNN7pXoip29/+9tLNkKrnvW5Iqbmk+ZZcFkWNmwlqYyHDx/e6XZ3fN2akNKOeK17BG27m7QGzHvHrdU10JJtgqCIKEvn5dDiqFn0qNerL4NUbdliLVF+1yslWVTc/kjOm0a87I0a3nHAyYRo1XXwINvXve51pVHiphH3oXM2xLRDzmQSMdX8SOvvlhFi2oLWer+XElJ7x3soJYszo2Uwxm02mqXouifCuAqbMuNIypEaKHUkrTVQSKlmBg6Ndm/SNY1lGUy7yWTWEVMkS+2be5eOZmNZxfveDZPd/o9x4sEIlbKEnKqXayWnyAZ8zj777GJQqy1bpTFrYmoOMDpkRhzsIulIaU1j3qT5sZ0MpbjZT9/2treVedPiwKNLrCnkS1QQfqviwNvuXltfQ1jsIZxj1pPGeq2DzYHUMfY5OpZl7CNcor9SVlsGRwNizYlJd66ak6rlXnZ6L/0ohVcphE62HNktZ6HTEXCCkbIYGReLHvQ+m0eGGDmbr5Ws9r0W69j1K/HZpHVc7x8e1rP9gxPCem7NKrJ+OSA0QuKQy+hsxy6C0H5C7oYhJ4piQvH8hZhumHDncDs2GwRO7Z3IQF8vIsVMCTHQn/GMZ5S0RsbqsgwLStUGimggHAh3y/2A1gbKeNQtk2dUWsoqkO2dxC7FSipvyzmmO32WumEpqqI6ooGr2tRqp+tveZ1BLf2QQ4aBYvNtJadq5BikIgAMlVUySGdNTGvapewIJILB4X43nZTKKpHyLYKgTl15QF9jFj6apDDQrCl1uKusS1rWT31v1bnsDHpICiAijwD0HSIsjphg9GuesmiM3IM9z/5HjzoSp2WopTv55JML6aIz7YubOMhU+jaHr/2V3dAy4MI5g9hZD4serp/eZxdwpLQ4UaxljncZMkqXNnlvtA86z5bOs6bpv9ZRu1LDagz7xF74hJh2CDHGRYwuvvjipPLuNWPy/8VDRvkwKhDUFk8o+BgWvN7ahGvusSylTaHy9tk0bTw8o63Dtaubcy9I6TJSjlquWXaEe5WO7ee+RvPW70AwKim1mYwhRdNRF4yTyy+/vKT0thwZAD8GNOKhO7Va02XN+62y9PusiSkSbo3X7tSbnqJlHXmow69deGVetBCumu79vOc9rzi71r152HbzrL6G2NG3jFnPDNu+uojhStdyeCB4dM8iyV3dN5xzjZi2ND1y/xrEuW7XP4YhWsqhJx0W0esrZ9joV8C5JaK26GHt0vEiga5ftlHfMe08cZb3spzvfa93v++zntWbWhMcNuTcMqqcnf2uLnfTHZh7YRNi2iHEQBUNuOyyy0r0aC/Qpv8/qbzTaIzjZxsLLzcjXU2mjr2t0SOGqvRPEaQDBw4sBTgpvOojtIBnTCKprUOHYRsnQ8Pms+oKlaxE/FrOMd2KiXt0r+Qn+icC7rVVv/et99H6uzku4nzllVeWhg+IasuAj1RNTgxzRkRsVcYsiam5obbqOc95zu1NajZ9btCJjDPpnYxYqX8tBrh5oAzAehIxNU8WSbYWPQ9hZf0gpRrqWVd9jVnElOFvjmmaIgIpQr+ogbC4Xka4NFWkumUoYznYpbfLmhjDEPhw3Jyaa9l5ZN93sBM4PtUgLnpUYvp7v/d75egbjqa+Q8lSrRFHusag/9hTHDX2x5bGZjBVCmVNqLmG3Sbrvj5zKMS0Q4niqKm8aX7UZ9rkPZQQ5cPj7byy1hRwiofCltKr/kzN3SKVEZIhzY4iFTF1/S3k2rXy1Nt8GJM8+OswGIPSbfYTMWUsMKp0GtQxlIdzLEOqJhLHiy4S0OrMYKCIlJj30r9XZcySmFoLUrMQU0bGolMtl4EpI1bmiAYpiOluZ7puvT5ES1frmrKovME82WRjlq61h8BJI7baIGcrNtv9DhdEFE4XXHBBqdOUNrmoQdb2C3uHrCH30Wdw2FgLL33pS28vY+nzd+v+HjpTPwqEhc5sIfL2Wem8//Jf/suSYbJIBwS5WtOvf/3ri+O6b624+clZIsprf1y1EwjmMZ844Tw4+NmEnlscEBxxghQ188xaGfMIMe2knxrTMS+BYfdOCfFw23BEB2rToJZP09xAWpPokRpFvy+CnDKKRHylI+sOqRtv62YpDVOEw7VL5V3khtmC8db37rfGlHxstCLE0lFrc5at37Opv5s75j0ji0ND+lKLQwMuskzUI8OQoboKm/CsiKl1IOLHWWN9mC+bTLDqPK8dy5Es2Ud9o3/+ni4xH9TRaYazLrqk3vt+nhn+jhVxfBXneF9j1pyCW3Vs6nK7qOEa1ZUipjd0ZRF91z/jmzPzFa94RSEs0t3HMOCjs60OxjATCGkZSkb+6T/9p+U80EWWBEjjlZr/u7/7uyWy3zcDgqPJ2aWcJmrrOefGMuyH5CybgE3Vd23AhwNCGYP6cRiOeYSYdtKXysuTpSuvRjAtI6m8LWht1nspagaZmgIPc6iv8oYEg1wKB6/i6aefXn5eRHSF51NNNWIhesg4arlutV/SVzU2WLeNh4Hgnoem8kqh03Dkla98ZYnyjHUD4RGWEg1LnvWW+aNpFPImpU8HVgbrsscsiCkSytjWlAYxFdEaw2B8SfNTeyx7pKUWDQnl3BFFQ67GZMSaGwi8zBW2B4OWLu47YMf+EGWR7rkIp2a9ZinIyLQzr/sOjld1xIgpsjWmTBNydUzQb/3Wb5XSn76YeZ89VvQRZosk87JhlPq8+c1vbmrcxIYxL5Fp2SOr1EugBfch78Ul7I1vfetbiwOixUHHrtCF2d6xCnvikPuf1d+EmHZI8mDdcsstk4suuijNj2Y1s0bwOYxxD+nflJHjEXQrlerUd1BAvIuUkRRHKTDzHqKGiDTDwtxvuV7XVgv1RTlslOsU4ZAdcUPn5R9yjilHAiPBfXvYcMcQDdtuPjKmOTbU5bfOIQa0hhicMZp/rYKBOgtiyvB2X1J4ZUIswsm0nWwW/Rqdx6F7qKu3F0lrSe+m72QemAvSUddJl8wCZ6Se8VqPXRE17TvoHk7C8847r8w5828RgyMKIVVfKtrbd1Ri+qpXvaqs+7GsD/jADGn5d//u3xWy1xJJO9D1oEBYpHpy5C1qINMywi655JJiH/f9Xs5bTqaXv/zlxem0yChv32uc1/vqEUFvetObigNC4KLvQOYPdnWmoqZjWhvb4RNi2qHCWHXumuL01lrBREy3m1bjeo1hxrOI6Gly0NIkgHHBMOdZ1MGTYTuvbpQ2QxukSBdy9tnPfrZ36liVKOORIekMPYQasV4nciY1SZRPqg1DoSXSh4iK9Ll35HzMXk3pfIxoOEpjb+3Qq/GR1E1YLtLYqvN46/MsiCknjXNarQ+Ea1ERrK33sujf1UkiKJr4WFN9HV1IKMeEOaCUgQG7TrpkFjhX56YUwPe+972lRrflc+ElQg9DBGYRwx7CKeUYEbWxfQf9ac942cteNtE0b0z6097r6Jhf//VfLySvr76kQ9Rfq1knYz8varBj2MWify1HAnFAkO9rX/vaEiEfE8mi+0TGnfABMzLvM6qc7R0veclLSllXn7/b1PeEmHaS3Q8xZYBo8SxFZV6EYlMnn/tCyqS8LSJSOE8cRZAocc0/1G4iq30HpWSTVnPHWNdYR3Ru1kaaa2JEukaGpDrTvsO1SFtlQIoWalyzbqTUve6HmDrkXGRbXRev8FiIx05zRFr0xz72sdLVmQ7tS0h8nlozXvXzzz+/pIUvO1K2X2KKVOmSKiXV+h2LMcZBIa2z1tn3NbjNAXqfowex8vNY0+JhQTdzGIo6i1S1rCW1zBpHiajR07PeN1zf9AgxnUaj/89k/B//438sNdh9j9ixx7CNarnPIjuZsw/Ui8sEazmbk11gr9RJmF08Fl1YZ4K9BGacNi1yVtZlLUt1HzuXCDHtZpNUNCkLNoXWrrwWocWXMQwBtYoHu/QFj3UeDAlGGe+iCBLl1DpE4RAfaTsI+yybwvDYSuFVx8SIbK2lZjSqDXQGJfJMia7j2E8qL+PPQ7OnjEnxBvMOq49rbaCFiDrTVPREbc2y65D2S0xFghADTspViAAvan5q8PG+972v1Je2OicY2/Qd3U+/zJtQLQqTod/DkNWMTv1/i2PTOjL3zjnnnILjvB1mQ4lpTeV99atfXdb82AgL+8DRK7KqOPX6DsSUQ1i6O1kvap1UYmpO0vN9B5uYc46c1Y+PKZVXBoQj6fSwkFXAEd53sKmOO+64QkytlUXJue/1LfJ9IaYd2tKPhjY/MnlsqkjEvDeERU6MeX8XooTMMeKkqGjgsM6DQnJPDFyGGsXUEj1w77xkOrIx1CioWSp0zheRDdFSpLTl2sxrx9mogXVt6iyXHeEaOlcYBCIT0q5bU3kZfu6fMyXjh41bkBHn4IqctmzC5hSHnrNgpaktMkVtO9nth5jS/UcffXQ5g04q/rJJ9nb3N6/XOCQ4uhyRoKla39R4e2ZtEsWINcZsiLl/ZUQf/ehHby8zsJ/0GRpGSQE899xzSyYCYjDPsV9iOsbmR+Sh3lAkTbZSi2NY+UzVLyKms3RY7zZPZIFxknA8Ctz0HeafEjcNAsfW/IhNKwDgyCx2RksjODaW/UPWzdgzskJMu9XGuKrnmLbWmNbFalMd+8ZasejzXGtrKF0Gig6vmzAQPh5RxFRqr028r7Fm/jDQdd9z0LKfec72MyphVk+KMGta4Rr7Gj2+m6GNjPLYSlekQNd1DD0uhjGgyYgzZ5dNolYFe3NLxIxnGNFvMV7cg3RekR5R6EUed7EdfvshpowIqe10GK/3vInBdte/rNcYYM6ylCXSV6dwaokCcUpI5V1nfTJL3Gvm1uHDhwtJ7Xt0jD1C9Jl+WkSESrOmIV15rYsxHhdT5wjc2AZIaUsfCg5qekVDNWtlUQEQ9ZFqn2USIqh9B6eTDJILRnhcDB0INw47UWbkvu8gZ7YFnWitjJlPhJh2s8aGYOEpWG5N5e076fK+7RHYNGLqLm08Iki6ForKtXRmEzVltJ166qllI1J7NVRBVVIqJef6668vzSpEDPsakO6FESnFmLKUpijF2MazroM8bugaP1177bW9I6bwh8OLX/ziQqRCTH8kfY4Xxstb3vKWySc+8YmmZlpS+UQCdCF0htvQef6j0zacRwAAQABJREFUqxn+036IqfXqPF/NyxgUizIch9/t/v+SbvGQ5qfDt+ZvfQciLzNE92IRgjER+d0w4uShn9/4xjeWxil903nNN+e/coxoOoP8zXMgzIxuOpTszYM+g3MPiRYREuFd13KQPve63Xvsu4IgHMN9nQ4+h3ytkUXXa5qPelKYj2pN+w56nIOEPlT24ucxDQ4I5FR3cj/3HdYHckrOY9hDdsMlxLRDh7Fq4Tn6oCXFYjdg83/9ENhEYiqd47vf/W45ksQxMpR7y7AJiVBS7LykQ4mgjdAmiCRLt2vpoFivV6r1wS59VQSXrNZdYar/kGLTco5piGmdDXd+rnPMkQK6HXPy9R02YnMK4ddQaug87/t9u71vP8QUuVIXLvI7lkHu9Nxv/MZvlLNLW5xvUk+RUmdvcnpl/BABmDJmRajsG/aQvkPKJEyVW8yb8JG79YKY6iTcQrLcj87VMk+ke2asLgJS8zm1nb0q0kvufUfWeF+k8r7tEAgx7VBJxHS7qbGY1zaRmPIgI4TSORynIZLUt2041JE/6bOiMCKVDN8hg5EjA4ABwfHSt0Pc9Hc961nPKgakCIeo4TKjWtPXNfTnREyHIrf935nrvMJqDBHTm2++efs37vCqOaV2V0fqeUd6driE8vJQYopMIwSItWjVWAb9pn7qDW94Qzl2CqnqM+gPaX4XXnhhISaO2Mn4IQLWEjIg00bZRcsRHfZRDXL0aph3DTyCIrLrOhHTlrRUd8rZar0j0RmriwCHg6ipNa72ueV84poVIRtmqP2yusjkyuaNQIhph/AsakznLahN/HwEjGfNJrUpNaZVTpQ6Ra4LbjXY+xpvPgM2oqZq19TgSoESYeo7GA8itWrAfL9IYYtn2/dJUTzrrLNKzauU4k0YQ2pMEzHdWfKMafOa4SISfUOXJt061C7TATpOLmsMIabmhXUis8ERStbLWAZnriiKxlcccH0Hg1Xa6Wte85qi+5PGe0fkOHlkuFx33XWljvOO/7v9b+YhR6b6/wu6uj5HdbTsFdt/6s6vWu+cnMizTJzWjCDRXQ0PdWRWGuL6M1YPATaEUo2LLrqo2BGcun0Hh6NsK05HDohZNnLsew153/oiEGLayc6CG9qVd31Fv9wrtxnZPHnMN5GYMtinySFDQ9TUa31HrcGT6nigOzydcu+7iSu616DCoffS0/vWK7k2pJiRfbBL4RUJ8vM8DZ2+eMzifUO68sI8Naa7o6/mDDFVc2jutwxzTNTxkY98ZMufzfS9Q4ipNYEQML6kJo4l+oeY0Cl0GhLVknKqPpuzLYfIbz99OQ9FSuntD3/4w736AdDX9gZ6Wv2mdTTPcxBrZLeWRLQ0xnHXGvg4ckxGEBK9zBT+7aWQVyFgnXtcfvnlxeHYUkdeERTBV+JQo/h97Zf693keJwIhpp3ceX+HnmM6zmkzu7vexFRe6FTjnAdceqOupYhiS0qvzxFR1kBAVEareASpz5C6q+GR5hS8njaYvkNKpaY0vO8ipQjypmwosiNE9a655po0P+o7IXq8TwSFIf07v/M7JTJf53+PPy3HxUgZl7a+rDGEmFqLGlXIKhAVGAsxpU9uu+22Qp50Hm9J5XRmrXpc0bJES+882+lpOsqxIiKSfR2KiCjSjwgou7BvzGvUtS1LQgo/50TLsJdIe7dm9C4Y23mmLVgt871VzrK+auft1uvRLZrjkeOOA2JT7IhWHPL+NgRCTDu8bAQ22CNHjpQ27W0Q5t37QWBTiWnFhHJnuDmOiOdR2lvfRiE84TZtHmZRZZ0MkdPdBo87kiDFCimVwls3mN3+rv6fKJAOqRqT8GozHl3Hpgx1cVKbW84xtZkmYrr7DDCnpXZqlGG+t2QGiJpIhWWkmn/LMF6GElPpasjAmIipbAzHT2kWKAOhrz6jy5zPTJdxfCVSduc1hZhylKvfpKf6NmOEJceIkhgYz7sBkisXQXON5kHrkGng/FrXqwmS3zNWEwF9Kjgg9Kpo0evuhpP78Y9/fClH0uhsnpH81UQvVzUEgRDTDrX9EFNGVDbYIVPvh3/DsFNvwrjb1EGZMzZq6puanD4KHiGspEhjCykxGgmo09puMGrUtSIIoqUitKIbfYfvkg5WGx5pUrJp44/+6I+KMaUplRT+PqS9yiDHxew8G8w9ZEWjDPO7Zd5xtjjPVFbAshwhIaY7y3br/0jdFSXjyEVSyb7PYKRydnFAkPmmlAf0ufe+74GlrBoRKqSvbwMkOko6r463nCSLqNfWsVVjv9/+7d8uTZv67GkVB9fLKc0hZU6oOw1pqeis1rP5qMkVxzqnd9/1Xu+CHcHRLSPGuk+9aUUmzzshEGLaIYM03HLLLaXIu/UcU4YUBWuT3aTI0k4TZtavSxWV5rHpRy3otihayvMoBarl4OW6iUt/s4nzNBtenx4iFzzsPNjms3ndd/gsEQ2ykHoj5W4THS5J5e07I9rfZ845Nkbqet8URN/CiGZMS4lltCxj3g0hpq6zpvIyvMaSygsr9YUMVXqt76Dra2QcVtkv74wcRxmCJ2KKnFpTfQf9jfQf7HoDaIQ078H5pARK+r5MFB1cW4b1w3YSQRdVQ06XlTHRct1je68srBtvvLFkGcks7JshUXEiZwEIDm9ZX+S8DB1fryfPq49AiGkno/00P5Iyo4hfpGmnSNbqT4PlXSEvqQOY90pRXd4VzuabGRzqTdU3MjhaDqx2BYyOA10DJGm2vOLbOUKQUvUgooG82S2eTXIwh1/5yleW+h8EYSvxnQ0Sy/0UqYciETnHdPZyMP/MbWnk5l/fIVVd+qEmQmrjllF7OISYWoO6ioqkj6n5kSgZ4sTBRqf1HRxq6ksRkZoN0vdvx/K+msFBR6kxRQj6Duum1u9yLM57uFYZKNY7R0Vrd97qDLXvIKYnnXRS2YNCWuYtubbPJ2dp27IkpPPS7XWe9v0kc5MDkq1cI6d9/zbvGx8CIaadzEVR1AAePny4ucaU94dh4jl1Eu0LiHGHFI0ljUdEnkHHsBPR7BtxYMhxfDz84Q+fnHvuuWW+TafE2Cw+9alPlYgsL3ZLKqX6SXU+umWKytYMgHZprv5f5LiY+cmopniKpMG5r/HiyBVnG55//vnFMPX7oscQYsqAFvnjKJLJMJaIKRKiLEFkvCV9k0HKMIVVxu4IIAGcmEoy+g56XOaByJT1tIghSvrNb35z8pa3vKWUjrRG0+xrnK4aN2nyd/zxxxcnNWdVIuqLkGC/79A34Ctf+UqRs+fW6DgnBL0ukq8cyUOnXun9cUT0k8GY3hVi2kkbQajEtDWVl0HvsHCL7D73uc+Y5k7udQACIgw1pReRFK1viWyK0COPIjQ2c55IxqEUG4aMB+OgLylwCyLWjMZnP/vZhRgsI2I1AMpBf4I8iUbw/KbGdBCEO/4R54hjt6TztpybywA95phjCjGVFbCMzJMhxBQRGFPzIzqFrhIhu/rqqwshadFdp556aiGljNKM3RH49Kc/XaKQMjv6Dga+yKOjl6RMLmKYE/YfXYQ5LJDUFmdFvUYOao4dmRPOuUVg7HWcr/5vE7N36r2vw7N0XvrdfNR9XXbMEDnTmVL6yVjHXg2RlEPQ+faByHkdZsP8rzHEtMOYgSq1Um2eBdcyQkxb0Mp7IfBnf/ZnE+c+iiypIWqpx0MaKXKNYniYGcYaHknfRbgYBi3DZlBrfDVY2vSBMDGgkso7e0mb16L1Mk8Qvb7ZAK7E8REij85gXIaDL8R07/mAhNBVOlpz7Mg0anGASdXmANOFOWN3BDSuo6dg3XcgpnQ4YiryuMjBMaoLvFISzXJaHBbT1+keOEo5qkR/OapkoiE0lbTU5+m/y8/zR0AWlpTeq666qjS9aj36rl4h+ZEz2bJhEFSOCE6IyLmiNO7nENNO/iKmDom++OKLJ4mYjntBLOLueR8Z8dK0PvjBD5bOi329j5Q6csoAkRIn+sAoUI/kuYXk2hx0zDvllFOKhx3h3fTBCSWqnIjp7CVt7nHsvfnNby6OFw6TvgNZOeOMM8oZjNL4Fj1CTPdGHNmwft797neXqGlfYkpniXr9s3/2z0qNPOKRsTsC7BF7A+dl3wFjDp7aAKnv383ifZr5qT0WTXftLU6p6e83V5T1iJ7WyJp7EgBQf86R6pGxeASsfzr9Qx/6UHl8/OMfH3wR5Cy1lxNSjfGBjqQiqJ7Jno0TOQ+Gd+3/MMS0E+F+akwTMV37NbCUG0BOeR+RU17mvkZevVjK3EHqRx11VGmQoe6j5TNq6pRuyAiuDQFR3fSRGtP5SZhHXaq0Lp0ip5wvfYeULsdGqXNehoNkCDG1XhhRY6kx5TzT4EZ9PL2FjPSJmDIwGaGvfvWri/GJYGTsjgB9LmVSWnzfAWcNZjh4NBJa5EBaZKM4qszRIubJX/zFXwy6hOrIED2TzqtkRQ8PDRI5NRBWzivrz3szFoOAtV7lLKJPD5DzUCeEq2aHqDFWa6oczj5gDpOxB+I6lv4ji5HienxLiGknJ15g0aZLL720ORUyxHQ9JvqqXSUlz5DndRTtdAakjZzi7zMYehQ3w1g6sM/qYyTWz6bwdcnUuAspXUZdX72WRT471kDKsxQ5674PZowfRlLOMd1dUpwtmmS8/vWvL/rUz32HyP3B7pgLjhLzetFjCDFlVDGoXvSiF42iKy/5IkzS4GUd9G10Ayfdi1/60peW5m1j0TX7mcNInh4Eajf7DnqKU8exS6Kmix7mB8eflF7Nm2Sf7Ye01OtHuKV5IqjsLfsWomrvM5fshSJsiGqibBW1+T1zUJmfHOoeOjMPdUKQl3lbM8bIlJztB2SNpJrT0rkRVHKmT/yNR8ZmIhBi2snVocE8/IcOHZowUFpGiGkLWnnvVgTMPY0urrjiiqLs+xp7PodS92AQtA61fDpkOldwTIaitH1GteYtIaats2b399dUL3qUUc0J0Hcgoxq3nH766Us5OmoIMeWsGFPzI43b9GLg1JHO13dUYqqWHV4ZeyMg20BavA7ufceyianrRDDsYUolENTW0qg+94qcICsa6Hgc6Byr5pVu8tZkxvwRYHPImKjnsuuZMctBjuTMgY6k6jLNISFTzGt0SpwQs0R8tT4rxLSThxRIEdMjR44kYrpa83Pjr8YmzvvIAJEeN+QsuD5Rv2kgKXdGomMFEIIxpPDW+0/EtCIx+2fzkOf8jW98Y4jp7OFd+icOJaYIE0MSmWBsZuyNAMPfWtIJte9YBWJKByCnIuuiptKRRdTsc6371E73jZCYR6JoSIq0XunhoqhSfZFUc02KqPeFrO6E5PDXyVg03Lngsr4+8pGPFJl7fRZyNpfJrRJUTgcyJWfyriTV7+RMv9TH8LvKX64KAiGmnSQQU2eyqedo7WqaiOmqTOX1vA5RJmeCIUxvfetby1lwLU1jWu6a4pb2pI7vYJc2yQtpk7cJjGUwkqTy6mKciOnspc4A1ZX3xhtvbNKljI6jjz56onOrWqNFj0RM90YcMdXgRiov+WasFgL0OKKmY7vMg2UOpFq01PFR5ox+CiJssx6VpErzrMQFiUFY/C41FIFFZmBj/xuTI3bWeNfPqw4IRFRkXykS5zo5s19mQU5rRJSN5Gey85DWrd64OiDIWdaXsgoyJu/a4bdeb57XC4EQ005e0vvU6V100UXNqSchpus14Vfxailej3rky5e+9KVB6bl73Zs6L15l9UfatNusxzaQUcT0mmuuCTGdg/B50aWli5S0pHcxKHjBX/GKV5Taojlc2q4fOYSYMnAZwS94wQsmT3rSk4oRvOuXrPl/qmN3hInOqwzRjNVDgIGu5lmd6bKHqC+nq+7Coqf0gSNGvD4L4rLT/SHonLDISyWpB7p0X78jrIiL/6/RVM9+93djctLuhF/r68hpLUmSvi24Q86zqC/e7VqQVQ4JckVKEdXaOAlZ9RrZVjnT1x6R826orsb/hZh2cmCs8uxpfpRzTFdjYo7pKuomLS2GYtftjqKn8Gc1KHEK/MQTTywRUylPNuOxDRgjpjnHdD6SHxMxtX44ezTFkhovOrPJg2ytGzpKT4aM1UNglYipfY3DVfT0tttuKymfSKq9jZNj3gMJsUY9pIRWRxKSWpvs2AeRGWTVe8a4J+5XDuTMVqEf1KDXx1e/+tXezRyHXgOSSW7sG8/SesmZPJUpyb6pnZwRV46J+v6h35m/mz8CIaYdxiKmX/jCF0oKWmuxfiKm85+kY/kGil1Kee12N6uUGPipK5W6q65UM4ExNTyanj+OM7mha3503XXXJWI6DcyMfmZwcqyIrHH29R3mIwPita99bTkCqe/fzep9QyOmsg6kTjpyaQzEVFYHYtoSDZ+VjPI5eyNgHZmPZ5555kqRLBE05SrmjaNGkBYBAXveIgfigrTUZ1E1a9ixNPUhyioS5yF1FOlJJLWflNREK5fhuJLur2cGR4QygEUMsjKQU+m8ZE3G088IK3sIUZWpY83EKbEI6fT/jhDTDqsQ0/4TJu+cLwLqnaXyXnnllWXzlgq130FJ63j6jGc8o5wjaMMdq2c4xHS/s2n3v0dMEX+NvHSb7jMYfeYkb/a//tf/uhwpsmhDcAgxZcwwbpCAE044YeOJqfpheonTQS1ZxuohwMiWWm5O0vurNJAT+9kXv/jF8kBOrTsdiOmNmjm0qGtGYmo0FTlFSJFTesjvHE2epYUiNnSUNU83LVo/LQqTWXwPZ0Mtj+OI8EBQOdoXRVCn74OcrQWy42ggT+SU7vZMxghqlbf3eH8ludOflZ8Xg0CIaYczz530g8suuyypvIuZd/mWHRCQEqNJhJQ5BqB6jf1s2DZQSve5z33u5OSTTy7Kd8wKVwdkuCaVd4cJuM+XhxBTxiGjj2Hwa7/2a4WYLtpxEmK6t+ClZGoQ6KiYlqOA9v7kvGNWCKwyMa33qMaUA1bnXrpYmm9N7/V/qzAqORVZc7Tagx/84EJiat0i/WQfHfNe2kdO9lsRcl172TLVCTHLMqU+1+E9bKHqrJFibnBGIKYcEg95yEOKrJFV60htapVxdUTU5/LH+WduCISYdtBW706aH81tnuWDeyKAhNqcRfYcrk6hD+1mSIlKZ1FX+pSnPKWkSNpQx6xc0/yo50Qc+LYhxNRXIaaMhBDTgcAv4M9CTBcA8j6/Yh2Iad3jRODtbQiLCLxIqpIq86wSh33CMfjP7ZO1cY7nqp/ULKpJ1aitNt0Z/CUj+EP7AXmSs/4O5OtB3l5fNEGttk919iOqVdbWjmipkhKy1SjSo6b8jt12WuR0DTHt0M5xMYuccvmuvRCoG7eUSPWm2u0PUeC8uw996EMnp5566uQRj3hEqbXY67s3/f9zXMx8JTyEmFYHCs+1GtNf/MVfLGlX873SO376kIgpQ0WU9+yzzy6OHz9v8ggxXX3prgMxrSja5xBQUTS1id/5zndK9NQzEqMRpTk37y6+9Xq2PtNLHq7RM3JqT5WBJJKKwCAtSIyIm/+Dv/dm3BEBGErjJltRVPLVz8Xv7O/a7LESxjv+9WJ+q9FvMiRL+lz0lGx/9md/tpBUkfRao+z9kfV8ZBNi2uFqYdx0002TI0eOFO9dC9RpftSCVt7bBwHK2UPzGF0M3/GOdwwippToYx/72Mnzn//8kopU01j6XMOmvkcKoq68MBU97bMR2nzUp+i+KvJsk8rYHoEhxNQGz+hDTF/96leXdCpRikWOocSUAePsVfMixHR3icWI2x2f/f4vfK2jVa0x3en+OF3pYc9/8id/UrKFkBa9FmSzIa1eR2yQ1Pr+nT5vEa/bDxAUOosNKLKGqCKs9l3khg4jk8z7H0kEQbVHfP/73y/ElPPBQw0qB4XIqme1qN677KFJFh1fU33t/dUhQfYy0si5ktplX++mfH+IaSdJ3hpdxA4dOjRhoLSMENMWtPLePgjYpG3An/zkJ0vE9L3vfW+fP7vTe6Sl6MD78pe/fCnG/p0uaAVeYOjc0EWir7766hDTOchjCDF1GbUpxToRU8bpmJof7TdimoYic1hwWz6SkewM01VsfrTlUnf91f6HiHIkIqgCB2pSEdRlpIDuerHdf1byIsX32GOPLfWKmuyY8yGmO6Nnv0BGRU6ldJOzVF/OCP+3CuR0+uqRURHyo446avKYxzymHEejBCVO/2mU9v9ziGmHociJBeEcU4ujZYSYtqCV9/ZBgLdQuss111xTWq6L6A8ZUg1tmE960pMmT3va0wo5HfI5m/Q3iZjOV5ohpvPFd5mfPpSYiuJxkD3sYQ8rUaZl3sOmfzcS9OhHP3ryqEc9aq0JUY2g0ieia46bQUrti2w0D2UZSI1a1WUTmFqnaK7LnBBBPfroo0sJjSiqCGrGnREgN04INk+Vs4gpOZPvdOov/dMnw+nO3zK7VxBQUVSRUindSOrDH/7wQlLJmfwz9o9AiGmHIcOfl+bw4cMhpvufU/mEfSBgIxbBf9/73leipVKa9rPpiuqok3jmM585efrTn15apY857cRGJ5U355juY5Lu8qchpruAs+b/NZSYSm18whOeUB6iCxnzRUBUx2OTRiUwyKmsFw/7ZE3znX5GYpEdumgZRMb+Ks1XkyQEVXStNk3yeqJr289MMq4OCQ4HMvVc5V1lzl6ni0TUPch5GaPKWWqvjr5kXJticUSkWdJwqYSYdtiZ8LfccsskXXmHT6T85f4RoJRttlKX1DurveANnsU47rjjJieddFLx7EmbHCs5TVfeWcymnT9jv8T0Na95TYkyrEONKQMT0VLTJyshNabbzwuOsWc961nlHGU/ZwSB/SJQCQxiwn6rkTV7po72om8ib/ZPOsnZmpX47MfR23rddATSovmgSPaBAwdKpG3Me3BfDNUSV1lxNJCrSKqOvggrgkruHBFVxp7NjSrrvt+1n/fJUrBfIai/9Eu/VM6MF0kVUU396TBkQ0w73BirOcd02ATKX80OAcpXw6Prr7++nBVo053V4EHXCOmFL3xhadBgYxzjsLHlHNP5SX6/xPRf/at/Vbry8jYvcugt8M53vrM0xep7CDznzk/8xE+UplgHDx4MMd1BYMi7iKkmbAy2jCCwXwSQD8NzJSJ0j8ef//mf395ESVMdD2TG6wiq99hrFzXoMhE0xOXxj398cQ7rlp+0z90lUGVc34VsIqtVzgjptFOCDq/O/Cpn71/UsB+Qsyj58ccfX2Qtai71N6MNgRDTDi+Tu6bySp1sGakxbUEr790NAZunNNP3v//9xVkyS6XKc0tJMqCf/OQnl5/HGDXldYXxtddem+ZHu03Ggf/HIJAmrZu0cwn7jtr8aJ3OMbWmpKmKmFpTiZhuL+2aynv66aeHmG4PUV7dJwKVoHpGOjmX6CIpnzV6WlN/pYgiqfaC+pjlXrvdrdhr6Tg6gs2occ4JJ5xQHFuLzg7Z7vrW5bUqZySVnJHUaTmTq2jqtKxFVdWrSgNfhJw5HOg8x56JoD7ykY8sv9svMvohEGLa4RRi2m+y5F3zQYCypGDVlSJNN99881wUqOiOTfHZz352SSvSNXBsgyGiK29qTOcjeUbCFVdcMfnwhz88+fKXv9z7S2pEQSqvmqxFO02GREzH1pVXWuTb3va2Uvve0iQwxLT3Msgb54AAMoPISO0VZfOMrEoF9aikxf8hNTU11L7sb2c9ZC9J79W9V+McDmO1pxn7R4CcZZqRMVl6lhFp3ydrskVavcde5fd5Rc91bCffY445pjQjc+QM0rrovW3/qC7+E0JMO8xNXCmUuvJKBWgZiZi2oJX3bkXAxmeT5NVzXNFnPvOZojC3vm8Wv6uFkFb0xCc+sTRCsjGOrUDfwd7I/x/8wR8kYjqLSbXlM5CXyy+/fPKRj3xkctttt235351/VY+jccQrXvGK4jzZ+Z3z+Z8Q071xZcj9/u//fsnoaHE6hJjujW3esTgE7LlIJ4KAyIiqcrTIlpO1RBeIqiIt9BniMkuS6ns5tURKNSUUOZXa6zV7tEfGbBEgP2RUV379ZKR3I6hkTs50m+CA+TBLZwSZKmV4xjOeURwR0nxrCnfkvLOMQ0w7bERM0/xo50mS/5kfApShuscPfOADhTD5eZaKcbsr57E92KX0nnzyyaXedEwpJrymIqaO4uGQ6oO1DcQG8+IXv3jylKc8ZeKQ7YztEWDkvelNbypn8JrLfUeIaV+klve+ENPlYZ9vnh0CW3W+36X+IqA1iibC5tzUSmIQVboNwZnFqKQEaXnc4x5XjnOT+plmObNA986fQcYeNf2XwwFRZQ8gp5yojowUZa0E9c6fMuwV9pWIuICAJnkiqF6rc2DYp272X4WYdvI1OU1KnVBbUpRMjURMN3uBzOvuKEneORvgpz/96dJ4RbTe5td3UGy8r62bpc2Ph/aXf/mXiydP3cuim830vcdZv0/aloipyE+I6azRnZT5+8Y3vrEQU97pvmMdiak147pf9KIXFYfFpteYDiWmMGKMcewc6LqSJpWt76rI+xaNgD3ZfmoflgYqqubBLhRJRWIEMhAbe/h+Bx0i5RMpPfHEEycPfvCDN+6on/1iNI+/J+dpRwTHg2wqzlQklS3GPmi1rXa6Vraa5ldqixFUKb7KV6ILt0csxLTDJcR0+8mRV+eHgE2Nx049qS6xH/rQh5o2OxuayCdj2Eap6L+lmyhjkZGocYsUyp/8yZ+c382u0CcjS4jpO97xjhDTGcvFnJaW/vrXv76kpNvY+w7pnjbr888/v8zLvn83q/cxOlu78lqD1s0555wzGmL6nve8p9TCtzS2Utv+sIc9rMiWI1f2QUYQWAcEEBgRNA5NOuKrX/1qIS1Kb+y7Imz7JahIi71cNE33ajX21kzG4hBAQDkbyFWknJzJGzcgY/bVfkkqEirbipOOE8K5p8hpxp0RCDHtMKFgbr311smhrsaPR6xlJGLaglbeCwEbGSWnzuEP//APS80Wr2zLBscgdvzLox71qEICzF/R15ZBKTpf8OlPf3ppxjAG752NJqm8LbOk/3sZcaIMv/mbv1m6nPu573C+pZrnZR0pwghpJaYIlmjHmWeeWerENj1iykDX1Ord73735FOf+lRf0RYjW4bGueeeW5xgYz2qqjdgeePKIsD5i7zoSfKJT3yiHDMouir61rJ/b71B5FR6p8aEv/Irv1IcOV7zyFg8AmTKif3xj3+87GVq6hFUdtt+5OxOZKzZMzgiDnTBAQ7OjDsiEGLa4cGzn+ZHd5wY+W1+CNjEFNwzhBl6vHN9vXE2KoqM141icy6atBOpqVKCpdv1HT4HITjllFNKesn973//vn+6tu+TriNCnYjp7EVo7jHa3vCGNxRHXwsxfeADH1jqrDSJMCcXPUJM90acUa45m7WjuVXfgYjSLS996UvL0QnpQNoXubxv1RBASqwD2U50nUDGxz72sZL+yenZdx/f7r7s7Tq3SvU89dRTJ7rmIzEZi0eAk5Wc7WHkKr2X3SCYUAnq0KsSAJDWKyAgQq5Dc8YdEQgx7fAw8eo5pqkxveMEyW+zRYDCc57Wl770pUImpcRJE+k7HNYsSsOr6owsEXt/L/JKcSK5vqPvsPE5DPpg1wxJxIrXdpMjp4wJqbw5LqbvDOn/Pmm8nCRqTG3kfu87dCvUodI8ZJwteoSY7o04h5rSA8RUs7a+ekZkWTT5V3/1V4tDTRlBRhBYZwTMfY44xMVezn70bP+VEtp3bWzFwP4rldf+rgeEEodE1LaitLjfyZE8ZbTJSrOvkbP9gnNiaPSU3aWu+LjjjitZazr1kn3GDxEIMe1wkMqLIFx88cVJ5c3KmCsClJwaBkTyxhtvLHOv5QttVDYsRrw0kFqjwGBEuG7oOs6KxrZsjKIZyKm6hwc84AET5HdTh+wIGF177bWpMZ2xkM07htnv/d7vlY27JXpvLksrf/KTn1wcLzO+tD0/jqHRmsrLkNBVU5227IVNT+VFTOku2RnWkNTePoNhzfB61ateVZp/0GEZQWBTEKDnBDTYkPZ0OlBUzXoZMpTpqMk+44wzSpPC1JsOQXG2f4OAioZzvMqulOKLpNrzRFaHDLabvgrnnXfehGO22nJDPmvT/ibEtJMoY/Vzn/vc5LLLLisTr0XIqTFtQSvvNdekwR0+fLh43FpTf+p88zy9YSG86r6uuOKK4tHrazSSCMMRIRWBtRmKyG7q0HVPZDnnmM5ewowxXmVzW4pbCzHVgOv0008vc1AjkEWPIcRUZoE1qNusSO+mE1O6ShMYxFSdqYhBnyFFUdT05S9/eYkQ5LilPqjlPeuGAH1nf3nb295WUt51eh06kFP19hxeSEvG6iBQM4OuvPLKEilv7e0xfSeCAs997nPL/rGMTKHpa1mln0NMO2mImNZU3jQ/WqXpuTnXwqhjyGmYgBjxuHmtJRVEHZ6aUsdT8K5Np374rFqsf9VVV5U53ddjy3C8173uVerAXvKSl0we8YhHbGyXXpuIyHIiprNfW/SoOudLL720zMW+UXsEz5w7++yzS6SAUbboMYSYWn+ifyKmIr2bTkzJU9mLyLKHkoS++ouO0fxI/RynWkYQ2DQE7MEcxHQJJ7F9Xk+DvvvwNB6ylqT0nnTSSSVDatoJPf2+/Lx4BKothyuw59hyMkmGDPX3P/dzP1ecdlJ72WEZk0mIaTcLUmOapTBvBGxY0m3f//73l02LEd93iGjaqBi/T33qU8uB3Nv9re/gsX37299e0orUU7YYjr5DQb7vkEok/W7TRmpM5ydR0TTHHvEk06l9h2ia890cFWOTXsbmzJhsTeUdW1dexFTqmjIEWDG6+zofzIXnPOc55Vgd3cQzgsCmIiC1kz6hCzU3tOfYm1tGzcZQsmNPllGSsToI0Huy0qRtI6dq7jm9W+Xsjth3GsMp0Up0/IcyDjHtcEhX3h9Ohvw7HwRsVAx1KXDSeJHHvsMGxasmWvq85z2vRBx2O25Bm3MePARY9MrvfYeohgiQlvXIaVWSXt+Uka6885OkOispnu9973tLNK3vN3GAaLz1ile8opznt4xOlCGme0uLk0u6Yk2F1wRE9KDvQEh1XdbYxdgkvdIXg7xvHAggKDKY6EPExb7TslaghLA8+tGPLsQUQc1YHQToQvIUDVd3KguLI4JztsVZV+9IKYgHckovjl03hph2M0P0KueY1iWS51kjwPHx2c9+tqSPSv9o8apJF1Rzh5RSWmpBd1NalCLjUUTjPe95z+RrX/ta0+2IAj3ykY8sbczVPtgckeNNGRwEGrdcc801aX40Y6HWBnK33HJLU0deXVq1zUdMl9WdMMR078lQsy8++tGPFv3yyU9+silN0TFAUhPPOuusold202N7X03eEQRWFwFrRUTNfq9sxFrR2bV1cBQ/5SlPmVx44YWtf5r3zxGBqgt9Bec/cvqWt7ylNEaSVdI61JpqPqmu2B44dt0YYtrNIMbqTTfdNDly5EjprtYyqWozmgc96EGTtMFvQW4c7xUt1cXN8STqmLWXb/GoaUSkrpTSMsf26txGYXogB7x473rXu8oG2fc7KUREWL2DZjQPfvCD9/zOdZIkjyZcRK85DKY3mJ3uAyYIuyY3jIQ0b9keKRH6//Sf/lPBtW+nQo4PTR9OOOGE0p1QtHQZjpAhxNS10/lqvs2LTa8xtVboEQ4IGRkcX32brMFKnZy0RIfLM7iXIeftZ25eDQKzR8Ba0ShHBpNMqQ9+8IPNUVP7Dof0a17zmrJ+pvtKzP6K84lDEKg1p+qKZQtxQvS1t+r3KaN62tOeVpx2zjilL8c8Qkw76YeYjnkJzOfeGXHSPBzIrP4AEXLeaEs6DxKKIDps2zPDrq8xx2un07QuvVIsfXcfEgYN3+Fwb1Esab2itMtIr5yHZEJM54HqpBAUB83/xm/8RskI6Lsx24APdEfFSB3XEdrvy/AWh5juPS8qMVWKoHburW99a+/IOLkyqjU/EhVQMzd242tvxPOOTUBAGi9yqveDTr2tzZA0hlN/b82kCdJqzgj7na70Urd1/Fdv2tfeqnfkVAS2nkAEh8SYR4hpJ32pvCJMF110Uc4xHfNqmOG923xER6WNqskSZWgdGhAx5CgrdaV9SWn9ntqM5n3ve18hp32jWP6e0agJzStf+cqJ2jDnNSIMyyAN9X5m8ZxU3lmgeOfPoEORld/93d8thlfLpnzMMceU2kNOkGWNIcSU8SCjQQRQxHfTI6ZVNoxrdXPOq2WM9XVC+Hs1cyeffHJxeo3d+Kp45nmzEVBaw77UFE72VN9jlioqej3INPCQXbLue3C9r018Fi2VpabcoW82ScVBRpzMG/uJCOqY5Rxi2s2KND+qSyPPs0LA5qMLLyX1mc98pnkzEl3QxVIkSbQUKW1VVGofNGC4+uqrSydg87xl+E6bIaObN28TlGWaH7XMgP7v/fKXv1xS1UToOWVaiKlu00gpT/GyRohpf+TpFaUvb3zjG4t+YXj3Hbou0yfS4ndr4tb38/K+ILDqCHDciKDJKBE1bd2H1R9K5+XQsX6SabC6EldrykGrh4XjtFoy5KqcHdknKMD+GusIMe0kL4pSzzGV9tgyUmPagtY43stQk+6m6YGmR8hhi6EukmBeaXjEWB96rqMNUaMlKb2OeLjxxhubvXiU5fHHH19qXKVcrvummONiZrsGzWvzjIdYyrr63ZYImqs57bTTitFVu0DP9gr7fVqIaT+cvEvmhWMSLr/88hIBEkHtO5QnaK72a7/2a0Wvrbs+6Xvfed+4EbAPswmUOtA1Lem8spWk8zovWc+HZBqs7lxSMiUgocyBnFui4zJuHvWoR01e9rKXlRp8gYCxjhDTTvLS0Cox1UWtZYSYtqC1+e9llCOiakpEKnXia4koqOWUHuhIBZGk/RrrrodyVJSvU6/NsWVTJLGHPvShk4NdK3MPJHmd6015rpEnToM0P9r/ekRMpSypq4FrS8q6DABz6ZxzzpnoAH3ve997/xc08BMYEa3nmMpq0MSHwWitjiWVl05RJqBEgcNLHX3fQeZ0mmYuUteGOt36fl/eFwRWBQGNkH7zN3+zOIpF0/oOdaUipc66fPjDH76R54v3xWLV30c34hAipmxAQa++Q5T0qKOOKt3pNVjcq9Fl389dx/eFmHZSY6CKKl122WWl7XOLIENMW9Da/PcifVI51JO0nvMHHTUkRx99dEl1c7zCrLyjvHhqTdW82iBbIrjIg2jpeeedVxowMMbXdSDm9RzGENP9S9FGLLXzkksuKcSUk6/vEC0TDZDW6XzLZXacHEJMpVoxGl0/p81YiCn5qi11xJpO9urnWgb9oUzhSU96UokAtfxt3hsE1hUBDmqlDuwDpQ99B72IpLz61a8u/R6W6cDre81jfh/ntzNNOWtbMjDZWfiEY9PG7rQLMe1WEGOqnsGXiOmYVcr+752xdv3115ejFBDAliF1Qy0nI/0xj3nMTOsMdOlFThHmr3zlK6VLb99rE+VwLIa0Ygd9Syta16gpMoqcJ2LaV/q7v48jRnr0oUOHisHVEo033zlhTjnllMmxxx67dsSUwYhYi5giWWMipqLkoj6OB2o9HoGRTb8hp1LX1lWX7L4yNud/OZ/Iu8WZOX331vmY6+UqFlLgERbZS6JpfQfsrBHp7+yDeRFTcvagw1tl7RrHnHo6LUulDWrwpfO2OCA4amWTIKYPechDyrF90587pp9DTDtpp8Z0TFN+Pvdq00H+HAujlrNFIdUr0oVXVzZpgQzeWUaQbDg8eWoBpd99vbHOpRrhz3rWs4oRzqO3jiM1prOVGueL+S51STlEyxBtrN0mzf1lGq/WQ2sqr2yGMXblJeNqwP7O7/xOMbZbUhMrbrqNa4QkSyRjdREQ6bvtttuKnaTTvN81rtLYxeOe97xn6WXAgWmfUE+JSHmdE4LzyVpf5vpeBXQRPj0nHCmiHt8a6jPgas289rWvLc7heTnA1EdK0ZeaLyOCbMmZvOs1yI4hW7/XeYBQyYLQoCljUpz+9pPDhw8XgtrXWWt9SNm+4IILSsq2I/vGOkJMO8mLovBwXHrppU2hd5MmqbxjXTo/um8bDMNMRFLXva997WtNTYaq0meoIaa8ZZS912c5bCSyA0RNdQhEVFuH4x4cBO06GR7rZmyo/1UL+Y53vCM1pq3C3/J+hosaap5h5BTp7zvM7VqfyaBxqPgyR4jpMPQ5JGSIyBRpibIgMPSIWnpRU3pk1vpu2B3lr7YioEfB+9///tLoyjrhjEI4GdweInhIDRmKmvkZoUGglKPIKFAzZ08b84CVzDzE1B7U9zgR6wJ2UnnpynmV0tSStg9+8IOlpM31ciiQP9mSKee7Z9dkHpA90qwPxYUXXph13E1w5L1mEX36058ujpo+8x6m1omSKQ3ixuywCzHtZgxj3cZ6qEtHSypvnyWU90wjgPDpUslAR055lVsGD6TN5ld/9Vcnj3vc426vK521ocZwRKIpS5ujWsvWwfCQdvnCF75wcqCrO3Xt6zRyjunspGUDpi/f9KY3lYhKSwdCxoxN+OUvf3lJDZ9Xelrfuw0x7YvUHd9H39El6tcZsi2DAw451fiKsbtuTq6We13n91ZiekNXAkHe9pHpvcnP006J+v/IqzX+qle9qtQSr9teMWuZceQpo7FeOHNaS31ETHXInzcxZcc49sSYlq2f2Q9V9lXO1i7n0r/5N/+mOKvH7oBgD3LYOk7Lec8yCPoOpyBc0EVMQ0y/970f9AVtU9/HWBUx1cihpVgZHomYbuqs2Pu+KGaKGimlgKTxSoGR1tt3MNAf8IAHFANNnZqNvCr+vp/R+j41EDVq6FzPFoPStT3wgQ8sKXiiHVIZbUzrMoZETN2b+z7//PPLubJklDEpm68D4y+++OKSAtYyj3RjVasMU3U1s0xbHyKbIcSUAeY+dBWWQTCvFLsh97Oov2GAKQ3QgVzWCH3Yd4jGcMTJFBFxSY1aX+QW+75KTJEpxLTv0GWUrmRo6ya7bOdT3+ue1/sQU4RPyYA10+LIc02LIqatTUDpbmetu751swfmIWvElI110UUXlVpiUea+I8T0h0glYtrhgJhSuDpLhpj2XUJ5HyOMAlIvotMe54bNp2VIYRSB1AiEUpIeO+/hunUMds02yFaDksGBTKg35SlFrNdlqKFByjkR+nblrffmgHNkHKEa+6gOGZEyzTxsvtNRk73wUUujvlDjo1VIWRpKTJHRs88+e7TElBNOGrfUePqPUdZ3iJA6l1HUVMM3JH/s0Za+2C3yfSJ79gqRPqcX9B0ipHolnHvuuaXZ1Zhr5mDGNmBfIqZ0Zisxfd3rXjc57rjj5uYAG5o5aM3KfnCcDQfT2B0QlZjKwNTkSmp7n8H5zR58yUtekohpR8pGHzG1ILW85+FIKm+fJZT3MMIZZRwa2oJTQFIbWwZPI1J64oknlmfR00UNxgbv7Rve8IYS8W1NKxIl1SEQOZ1OP17U9Q/9niGpvPW7kHCyYkjbjOcd2a7fu4rPNl9ZAtK+ZAy0ZAkgJJodccaomdLxedljCDG1Xsfa/GhaXtITP/KRj0yuu+66kjHS4qBA7KWtvehFLyqNPzi9MlYLAfvaZz7zmeJ8aOkmSz9K55VRIAWVM2rMAzHVRArBV7PbsufC8t/+239bmh/Ni/gpQdL46Ld+67fKdfaVFX3OUf285z2vEGepxmPfG2WS/Of//J/LHtnXWcemsEYcP0Yn2lvGOhIx7SQvciIlTfOjmlvfd0IklbcvUpv1PmmL0nbVEei0RxG1GGSUuc62iB2iI1rgtUUNES8eW57wd73rXaXGuiXaW40ORE20g8d0HYbUZRFTzoS+EVP3yokg9VDKpg1YlG/Z6afLxJueVKN8+eWXF4dMy9xHRDlk4CgtfBVSwUNMh88mepBzQoSAY7fFQUfn/dRP/dRENgLyYj/NWC0EGNYIlXRtx5207BPSs8nWHieaNubBZtC5HDG1B/V15tlnZFL9i3/xL+Z6jqlmTGyCf//v/33JfmAj9B2i4UqR1IsjV2POfKD/ZGYhpmzDviUuMgzYhDIMjjrqqLnVEveV6TLfF2LaoS9iSmFo75yI6TKn43p8N4VN8UhhkxKqbrGv8nGHjDFez3r0yry68O6Fpo3RfUjnFfFoTWNH2H7hF36hbEgnnXRS8Y6vOlnTiVgTD9GdvsS0yozcHH2AjDOiRQPGNhBQ818qmhR2UdMWUgov8/3gwYNl/sNwFeZMiOnwmUyPcMxZUxxd3/72t5s+TORZxEUEfWznwTYBtaQ3131CB2a6s6VmDkFRf3j66acXnTlmwgJH+6zyB13x++pN5F5mwStf+cqJrvjzipiyYTTq+Q//4T+UBoktDiZ6nFPpZS97WbEJxtzoyvrgqNN7oTYL67N0Yaa0AYaeVyGTqM91z+M9IaYdqiGm85ham/uZ9WgYhpgU8BYFDhXRUamMIkaaQojELWPYGHlJpWmJfvGG25j6bpiumSdX2slpp51WNiTKdJWNj6HEtMqHZ/ixj33s5IwzziiNPcbWsIXxYv5rFCetD7lvHc7pfeYzn1nS0pD9VUj7GkJMEWrRPh2q3dMYmx9V2dMb9IiomjrElqiaz6AzYCj7gvOHkbbKeqTe9yKeRbGskYrJotcLWYqKqyNGqjhi+w7Xao2ceeaZRbZjNrZFnq+99tqJ41jYDX0H0qf28IKuiZT+BvNyiJKza3zzm99czjtvOU6OLkSYnSyAPJP5WIdyIXsjR46jA/sOmUOyCmBI3vOSc9/rWeb7Qkw79BlXNtPWbmQEl1TeZU7fxX43wubhaKGPfvSjZaNmNLSkvNioecNEB0TdVqGOwAbkfmr0t+/5ahV9aa2aMjAq3dsqpGbWa9v6LJqDhLek8m79DE2q1IEgqIjqog3FrdezqN/NfXVRGmchprJMWgkIIorImSur1DRrCDF1L5xK5sLBLgI8ZmJqHoiamhcM75aoWp2/OriqOZYOSC9y+oxlbVUMpp+tN7jK4jLX1O4x/mGySFzsbxwPMms8vvzlL09f5p4/M7BlB1nzNVV7kde/5wUu4A1kyYGtp4Pj2mQq9R30iswkesbzvKKR5Gy+cbiLjLNzWoc01Cc84Qm3l/aMUc7qdGEoOt5C7u0lnHLOqyXzRfYcaZXzvN8fYtohnOZH855mm/H5lDbPcVU6DIYWUgoFB44zvqQ2MTRWIeImxci9SC9CThmYLYMCRdAYlMi2usFVHZxQ6nt4M1tSeafvR5QYARcl1vhpXqlV09+5Cj+bJ6IlV1111aBoqblubog2c2QsK1NgOyyHEFNRAl1HX/CCF4w+BZXhLZouvZvjh1HWOugR80MdtwcH0Jijprp5aizFiQbfY445puCC6C0y/d13e4gCIaZk3DKQ6sc85jGTpz/96ZODnQOHTL02plEzTX7913+9EPu+DXFgxPELv+c///lzPVqLjA1OanWwSpXYPC2Ds5aMPcboWLJH1kaq0nkFLvoONhR7wtne9sYx674Q027W5LiYvktnvO9DQEWLbM6U9he/+MWmg5N5DhlevIk2aApolTZoClQ0UWdqirVvi/M6I3hxGU6aXGhss+hmTvU69nrmqR56XEz9bEYV45Dx/NSnPrV4Ob22yd5hBorGUTJLENPvfOc7JQ28YrLXM2w4YhwR48gdnv9FGtd7Xd8QYmo9pyvvHZE1Rzi4NBKkQ1odd9aVBiDmiK7fYz0zGHYMW+mz6tSsP+l9IipwgdGi0yWlJYqkvf3tb28mLIxuDlnZEq57XlG/O87G1fnNsXIabEqT5dyrJLDPFaq/Vvpgv0FS503qyZmDWh8BkfKWwVFXmyDJiBkbuRIhZSPqVi/gxSHRd8gmYE9weMs622R7Yi9MQkw7hEROnMFmM21tAJNU3r2m2Gb8vzQcG4oaqk996lPNtXWMcIaFFF4bjI161QYvrvuTimdz4v3rOyhRZBTxZlRqeOGeV025kiFiyuAbGjGFiQ3X2ke0kHEbMqKyqcNRAlLQ1CF7tGy4MOE9P3DgQNl01SCt2vwPMZ3NzEWgOO2cCS7lk8OrxQinLxhlyJeoiwiMI2Q23fFT0YcVPYyUaixGH9t7EHw6R4qfWlwRNJ07a03/IvSs2nLRNOQKcW7RAeSnn4JMIT0J3Me8CVbFdNnPcLKf6n4v2izrqmWoK3WcEvzssfMers+1Iqete6Q5WhsEIqgcEGOQs3VrjeIR119/fckasW776j7r15rWwZoDZ5NtiT7zN8S0Q0nqonz6Q127ewZKywgxbUFrfd/LYfHJT36yHI9hvrRGAqRmqLFhbClwX6VoUZWKe+Llq90XbUqtA/l+4hOfODn77LNLOsqqbUruj9efwde66W7FwiZMlmTqsegIxtbrmefvojYyBZDS1mi66+LpF0k3L5DSVZsXIaazmz30o2MSHCVEb7bWrLsSkVMGGicXIsOxsWpzZnaI/eiTEHuZKxxn1tp2OhhRl3EgusL4V0pAF817uDZ6gNNBinGrHkCia60kvTmWqClCz3aAG3m2OHzJ1Tp43eteVxoNLkLO5pGsBynknCMtDgh/y9axZtVK2hPHQLIQUNFlZJ79JAuzLymFGXuQDSGjYOzH7cAjxLQDgbJIxNR0yNgOAY081EwxzEUBWupDfB4vJ++2Lrye/b4ID/d297LbaxSpTVN3TUaRVB7GSIuCFe3grHGkyuMf//iVaO40fc+zipjWz2RAI+NnnXVWSWUWOd2kgVSY/9L3pCjBz5xoGYwphoo5IaIOs1Wb/0OIqfuylkUzkARRoIxJIaIcQJw/6tSk97YOJJQDw7yRxojILCJa1Hqds3w/wxaplypfG+RsR2IY+tZQbTqnLMQRTMj7PId9oDaP052XXFsctK4badGLQKaJfWKTB7zoSnpTFpLaa/Js2U/JWIaVI0SsiUXpTefWul5ESwlTyzWTs14aSpY4qfVj2ORhDdgncQg2Iltxu3W7GwZq6+FlbXA0jcEJtxseIaYdOqkx3W2KjPf/KBwbC++/9E8Kh5e4RUnzhDGqeP55PhGXRXk9h0pO/aB6GAYSQ0RKSt9h4+QllXYkbVlKL2NkVcYsakyn78X98vxr5sPYYkgzJjZhmPvwUlf6zne+c4K8tTpl4GA+TNcdraIHfSgxRUZFgRmP/x9797YqR9XtAdzH8EqywQtB8BkCIkQwHkAwKAjii33qhRjEQ0wExRMK3vgE3gkixojvsPtX7rFTqW+tlZ7VVV1V3f8Jtaq7V3X1nP8xx3nMWXFM/5315CNDjXP1/fffd4EuWaPWRnZaw6ucV0CDHD3VqgTGvw3oBAVhJgB0Waa5HBR8xKAle+gW2cj6XyvW+16vpF9w1ho6exG0yAOyUv/oBIEc/SYrT9UIRz8VA5x4mcfWZWJwURbLdrhx48a+JJrkOgESc/H27dvdXGxZa4rONgg0N1WJqZThqPrccWrNcgU78eJbdP7999+bh4gXru8ypsr08fUp4tQCShzTHVqiu7WTFuXQ0lLK24LWtq6ldAnoTz75pCtt4bC1NMLFhi+EjRINEf81lvAOx1QOiYypslfOSUtknOMtc3rz5s3OIRHNX4tSUh1x6K68Q7y8N+ZyTmWKOeNovUUFw7FwkIuME2WF5CLjubUxrp577rkuW8oYhdMaMRnjmDIgsvnRxTPC/GHMWlOH36zLb5EhddeSJYI+si/W2+Et82qN86j6vc8ZRmQtnDgt1m9an2ajnJbySY4758Vad7g45mr6xTn1aD3lnq06Ub/Q1DpzehFN0XOtcmEMjujKKaVrOCuqj9AXrfdt5raSbXTl3Hnu+TGbvnKwPIFAxtemPsbV2uhCdKYbZQK3qhMvGzfe5ZRKWrCVWqsI3Be/2qmejBO0SUspbzcHCJA8xzTsMETAvKY9XhMAAB5uSURBVGAsfP31191mFC3GAsVCCNc6KY9R8dkWjCkKiFPO6PjPbt21EhXGSGujTClVB0d1ToNp375VKdohzzG97LcYWHZQlD2T4eG0MLi21tBfllyk3+G5pS1GVY3X2JUcyihSuqLm2hp5II5pUW2aszlEXjJoBTfIEZmFMfNIj2RgVCMwcvHWKZS7wUKZvKA4B54NQue0OAB0jMoUGbUqjZ2Tv4qu1pqSoZyuFr1Ys0uViYyaMnjGuEz4FmVljad/hgdHFDYeryPA14oRfJTACu5y3snRYzZ0FojknHo2saqxlux49ZVOZAfQiTKnqkpOhc7GqOQZndmINo1qLeEtHWkNsQCuYERaHNNuDhAcHhb/wQcfdJmBlomRjGkLWtu5lsFgTsiW2iHR+xaDgWKxXfqLL77YPdtza+WdtW5CBJ/gVZbXalQSsiKmHq6uJIlzunRjKMvg3Llzp9kIfFzfOd7GzAETIaaIldeZC3Mai4/rV8v/GR/KLtFcUMYmJ6LCaN8y//2magE4iPorw+RcrLXFMZ2WMuaKQ+ZIFoEcMZ9UX7Qab3qGf2yeQ6aaUzJuHJtjG+xToVS4CPrJSNm1VXXOvtjAw9hlS2VKa/fiqfp31X3oBoFKzrSqGo71mEZWkgvoST+QlQz1rcjK4ZhLZyp1ViFgXan5jtYtzfhVV13flXairX0plnDmONOc09qpv7Wa0JjpRM4oJ1tAyc6zHgG1xHhaaHDVtehMT9IZMqXW0XPgW3UkbCztskbcbtXn+Hidy3BOKe8OmTiml02P8/ycQGaQUywWs3NKCaN9Wwkc0X0H5bvGdXX7jIfBxElhgFCyrc4JYStrzDl98sknZ9+g43Fj4pj+sCu5UaLUkp1AU4fxP85Bp3QpYgqHAe2ZgwwNDuqamyypsiTZEDRHe2uqjftxYx6OixNq3itRYnByUt1nrW2MYypbJdOjTB+fZ43pxdSVKTWXyFKOGEd1TGOwC25d2z12yDOTOTMCw3DfinzleOIphqzH6siScmR81sJjnFIyRuBTJtkGbMdqZCB9qJLCBjkeLcJQb+m/vqKnDZvICdkiDiqnhezYCj0Lc3TlrMugqRAQ1EbXMZiY4/Sm51ly5FTeLNGKzoLS6Kx02xhbbCH9pg9lTtFZAMV8tfOswAQZuqUmyKDUXkZc8MFeHBz21uCDMcOEbnz55Zc7WSbwlvYvAnFMdzgwUE0wzzGlMFpaMqYtaK372nK6ZIw4LwwpQqdVEFf5yttvv90pGO+32jjplKySJMqJAVI47TMmzgijiYPi2YSyiUs6KIxiGdOWUl4GFEOJ4oCHkp195oQsOWWsFEvU2y6j9dgL91xDQ0vGE8WqzFkEGK1lb4x1TEPfazvnQfkup41hsiTN9xnDGMe0DK633noru/JeATJeMcdkBmXZZE7HrFfu/wRetN7UHOOglnO6RkO3z2N0Cycdn3HSbXLU2owRfymPtNM1LJbgLwEHukGpJ9nRWlXUH7egpUAeWclpQU+BPONai6zs99drdHVwSiU3OKU2iXMes/TFPekZWHDg7NAKi6WddBUzNvVRrspObnk+pzH1G1tAsNZmeAK25q75vHY6k2HoLLAtoIR/OeywGdPMab6DoP3rr7/eBdzok7R/EYhjusOBUMnmR2GJMqCUZjDOGVJjjHPRfOt+rCtdy9rKsdSleDlijCil7tadtuzS63crAvzaa691UfElH/tgB25BB88a2zdjWo6ptbKUk0gpA/Nx0XCKhnElMEEZi34zONa0nsp4OKEMDg4DOej948Z22XyCleyore8ZzcottbUalzWOMY4pg0qwwaOCGFrJmBaaj57JEI0jY34JDNkUxtwb2xiy5ArDlkODr2QfGPVra/QKg9bYrdVzJns452P4zDp2DhzHBa+RM0vwl3GRg5xTFSgMdoHLMc0YZNA4Ytac0qGCeRVwGHPPub/DNjDeWmfoWaX0C5qWLdHaB/OZs0JXcuLM8SVo2++3sRgX+no2seRNqw1Q90Nn2X46UFBJplyQZangSvXrqjM5xQZCZ7YhW4gd1Bqk7/+GuW6Jy/VdubYAGxovTed+/5Z+Hcd0R4FDHhejnObdd9/tmGtJg3vpiXSs32eQ1DE1IxO25oL1h5zSMdFsZTci2YwGRhJBvPVGMBPEynk5L61ZZPSijOBiZ1YZDp9NTb99cFaOzDD2fLZWx5QDgr5KtERMKat9DEtj9T1OGmNLmZbD/OC0HhsLhkY5pNZPK91FU0frjqB9zIvO1hIxOjjja15X2u/7GMdUJgNdRbyNN45pH9H/fm3e1bIZFQvm277VB/99t38/ERxQhcG4rUMmhsPG+Ds2b+lVZdHoE+M1TnwmUyqzKPCjQgEeLa3mmyAIZ1xJpPEvIUer31XaqJqGblDeS7ZUMKKu2+dsHOQFnuKgcsBtnKO8VwDI/5agZ7/vaCagwCGnSzhp9IGDvWDsRY8WDHxHEFPwkp4UeFBdsxb7gRPGNhLU/fnnn7s5baxjGhqat3QgGssc2rkfzTmoS1cVobGDbse/lrdwStFYCS+7YWwApuhs743rO6eULURWpT2KQBzTHR4YThRESYqJ19JEtdSIK9vbihHWMr61XcvYwMiUFwE3VSOEKBYOqRJewqhF8BI4lAiFwvlinC+tRKfCxn2UrDCwPDpE1JAD09Jgw2BkVFlvyoinnI7d0JhjahytjqmSTYaDzI85IlNAce1rYFK4xs0hpYgdXvvMLqPkx1zrUBlJ5ri1bGjHOOaMkXsi4cY01qAsGgrMMSRVC1Tpcv1v7WdYKMMzL/bl+3IU4pjuT11ZJnNPdsmaNdlDRn6LEX/Rr9ELsjD4SQaC0cthpSsEf2Se5jbyOWkMVjwmQ0q+sCd+/fXXTp9wwvedW8MxkgtsjHr8hoC4YN/SreSKcXJMOaicb1iMbfQmWclJISM5Ltd2gQfjN2ayEr3Rs5zAsb/1uO8Zn4P+K9mJtsZIHzo4qIIQ++qBi36T7Be4VJVjrS27cm3N3EVnzin+FWw5lG+NG13LOTVufGxTIHQ+Bt/C2TjQr/iXTOIXGK+Akj1HBOcP0ZHmqnlLLtnsSLZYwGVuubS2ebRPf+KY7lBiXFIe/9ltaU/QtDSCUglR2nEQILhqjcIURnwJVlFQ6yjMAQKpVbEyUjkY77zzTue8EKyn1ODEqGR4eISIctbCbt9xEsCE8UsvvdSdKZ65DYth3yrqO6aUl2Mqms1gEkHlxFhnMmY9EcOLAhYllvkgQ2QGzBuGWR36D6M6ajx93Pp08Lp/uL6iv+a4jIYNVyqDw9jyW2NK1qsvzoIMnFFOGv7c2rrqsY5plfImY9qfDVe/Nj9LlggSCY4catj3f7GClwJh5qJ13hxWn5vrxUt19t0+P/VfD3nLtX3+8hp/OQR8GK8MWSW7bAnO6T5VFe57WdNnes8a/QqCM9jX1NCTTLFhIJqyqcY64caFBmSK+5Il6McZF3DgrKItp8Y1Q5rW9/t0rM+cqw1pO6Sr92hnHAKaZKfqEs4KOgvmTdHYDujLKbX8x9jW3NBZxZAnFuDbQ+d3jRU96T86Ed8q6ebE+RyNh3Qu+tbZffqvve/TuN4Xnb0v3jUGTqmgA10gO8rGGWMLuu9Fjc5HW3xs0zLJlTilFyG1o+MO+Pan5l58r81+SnlQjjY/InRamomFcdKOg4DImh0wZd0w+qGtlA9j3bonSpVTOhRoV/0OgUlxWlcnW+r1FE7zVb957P/Bg5FAUDM+KCVRRYK9pTHkn3nmmW5dXhkXLd8/9NpDM6YcU8qSk2fOwEKmQES9BQtzhlFlDjO8HBz1yvowVCgugS//I2Nc6ztkju9X87sUK/pQrowFDqdDPxnMIvyqAGSrZG5cU0YFZd4y3+t3nX2XkcyI8HgcPKC/+rml9tuIjCk6yBJ7FiO+F5hKezwC5prDXBTgEdyxC7R5ag4f2vAGY9+8xFPmI17i1DB6vS++csZb5DV6DnkLX/V5C39VVoWeIAPJFJuqGY8NgDgszmTCoRkW/SELZNHwlv6TA33+PxSvKb6PnmQNLBj0tas3rMa2kkswQB90QlM0w3doC5uSlWjepyecfFZ0HTotQ9rqf19u0nXG42xuCkCiLbqive8f2vRNQI9esbZUhn/t9iS9oYRZxQMHFUawO7SZ02hm/A70dZCrgrbo7LW5gIddW0fpRXj2m3lJP5IreNF8RENj8Lr4V6ABnelGY3Hg4VZbsP/bw9ecbQFMepIDbhzDOTn8zrm+j2O6o7wJqSzP5i6tjum5Tpylxi367dlesm6E0qGNwBIls9kRp5QB39oIS4b5rVu3ujUTIvOn1krAE/JKPytbSJG3KGiGAqPihRde6Mp6Rb+PaWRRQOjc8rgYykO/K2NKSWrkhlJEmXaPCJAloMjGtPqNMrpkZc0rCrgUNaOM4oVXX6EVbcqApnTLwKrXjGbG1ZSKVj/0t3YetmHJtV3J3RbbbyMcU8YQGuH7PC6mnepkCWOfzrVujQ722pydsuEVMlnQh+GPj7wnh8xf79HSfHYwGL3ngOAp/XQwbH2mf4xbvITPGLf4y+eHOKL9MeuzvnGmOaWMWmXy+tXn/f531vCasU/GWu5BLgo8wAp+UzXjh0PREA+iJbr5zEFmusZRdEVnsrKc5aIrGnNEfF60dTY3yUwOiv9NPQb9JTtlSTmlgg5Dx2oqzKa+D3w4pOgssCSbPIVzirYOWDvTu2iJb0sfwg1v+BxNXVM0dtZc4zV+LTqz9Rx4Vl/9D22HQQdzZKqGnvp5bacX6Qhrw2tDwKl+4xTvE8d0R1UGJWP7/fffby7lPcVJseYxTemYUkgEU22FLmvus5ZG8HBKKRfOMoG4FeXSMs7+tRwyu7jaJErkFIYtjcIgnJWlHXs3U9URP+zWyOi71/sooVKQQ8e05g8FLbAhg2q9EeN0TPM75o776hecBF+cfd4PxLi22nAMlC9DSj+8Hv6/vnfI2e9znlUwiALbFVWlwFbn/hjHlEEkE5c1puNnEqPRXCVHrFurtWvlFI6/89XfNE8ZtXhqOGd95uBQDfUBZ9SBt4pPr/6l9v/qD94iIzmldIt1eHTLVpoAL4dFNYnS5kPW1142ZjiZPyXfvMeTcOrLyvo+Z8a1nBLyq77nXI6n+81JW33RT5lAjqhKC7JTsNPnfble/V7r2fxXKYBnZU4FIfAtnTNXg0+fzkOeKLpyBulNPDxsaN3nYf+v+07Zd78vM6oyzJ4jW9eRQxznfB/HdIcuA5VR+eGHH3YKck7Ac+/DEJjSMaWgfttlSmx6JfMlktbaZLQ4WNaHUDTn0ChvUUbOHcMDhmOa0jS4iSIeqzGYrJMd8xzToWNafaag3VcWWQkbeTJno5gd1fy+45hNJsKOgjdv3uyyOYw+inirzRzO5kfLUo/zUgEvm42MkcdTjYChao7jK/LumI1OsQ6NMSvLgte3yFuyyNYjfvfddx1dVSatpXFgl6Ct8cvuyn7bud9ZNnDLTWCa/fTpp5929JZpPrY+gh8ewStzBWNbaSRzL7DksWno7P0W+bh13FNcH8d0h6KMaZXytm5+NAURco/9EZjKMSU40ZqTorRT+VGLMGW4iLgzHJQWy5qK0p1Dqwiz8h0P3eactmZN4SRKLIroMSyU80VR7qnxZByh9xQZ0+obPJQ2WcNpE7WKHsNkDqPW3Ou3ivz3P5vrNcUvm6P0DO04p977fNivufowx33jmM6Bats9Zao4p7KnKpisVSRjZDiWaObzMXlLFo1MZMzaWVjGVMZFP7bIW7JSMlZ0q8C/DCoHpsorl6Bp/eaxaet3yUjrSclMyx7YMoIQw6xf9XErZ44gXadyyLpTwSWBJXQ+dluCrsMxsgtVDwks2cX/2q6MF523riOH45zzfRzTHbpZYzrnFJv23lM5prJaSnhlSTioLUKU8CvhY+MTSmbrUc9WKnG4GB2cMJtGWWPZ6oTJSFhD5fEiHJ1j7FI35RrTIWYUtCyBnRsZYpxUpU6c1q03c94aHxtQ2LyK8UzhWrd3Cm2MY2r+Zo3ptNTnCHJQGbn4yPIKtCGvLyqtnfbXj383GRS6hOyz3p5DSp/UbqTH79G0v4ie9IKKEk5prSMmFwUhWnXGtL07zt0EHNgHnBWP++GcCjqoMjm1Vs90RWfZckkflQ9TlsiuFTOJCSX3/7PbPZqdKnCrig5/p7UhEMd0hxelJ8pjV17R2rT1InCoY0pREpLWRSgxUnrZKjRFOAkg0TDryxgR51qiweDgnH788cdd1LQVS+UtHJw33nijyzrLvs3ZGESy5Mpu8f0+GRFOmdKvy0p5+/1laFU2vjaG8JuMahmElqx8/75LvTb2csCUI9mExa6Cx8pwH2vcYxxTEXBG55tvvpldeSckFJ7EJ7XBiqAXB9XGSJYQcFzx2T68O2G3Jr0VvqJHlHXKksqieZQWp4Uhe2r6pOgpcOdROg5rEjmnJRe3TM/h5EA/cpN+E3CoTKkzh5TsONVWfCvwLxhBtnJQ2QbmwanRWaUXmgo80I/K8OuJA+ZAWjsCcUx3mGEaDPTee+9l86P2OXTUbxzqmDJq7KJ4+/btJ3766afO0GkdAOdJVPuVV17pnj8pUsbQOMcGT1FS60tkCWHb0ihw+Hmul9IXBtqcTXXED7vNjw55jilD8rJWShcu5IryXtFjhpjXDLEtNUpXVtQmVdYC2+yIEqZwT2nOM55a15jCoJ5jeuxNvLY0h1r7WjzkjI8EdTilSkE5qaoelA62BsFa+zHn9WSebAp5J9Ajg0avcFbx1SnxFhzR0sExqXJtekOAWODOusSWqqU5aXPovTmd6Es2CDawFa7tgq+C2QKcdN6p0bePmaAR3pQppfPYBb/88ksXCEZnPH0qTWDyqaee+v9dszmkgrbofIp8fCy6xTHdIc1YFZG1CQ4FmLZeBA5xTAlMEdtvvvmme/6kUhOKsrUpx7ETqfWlIqKnHP3cBxuYUj53797tnNRWA4OiVv4C0+eff75T4D6bo9k11xpTfZ0jY9rvMwUseizLo1zcIUtgl0oO/FJr5/p9vOg1hUrhKrPGbzKlFC7DylqZU1S4YxxTxkd25b1oBk33WTk0nFOBHvyLVmQ3fvIeH7lu7U0mlLOClzgqzpxTfEWPnEt2hdNCLnJQ0U+VmgNN0Zb+2AI9h/ONPJA1s9yBsyI7KohpnbBg3jH2UBj2aan3xbc2mMS3KqsElKw9RWfBCHzLJttaEzwSrGWzOARr8bLAEjqbB2mHIRDHdIdfOaZ25Y1jetiEmvvbTz/99BPXr18f9RxTzoDslWwpQdm66yMHlJKR3bOFP+Mi7YkuAsr58sgUZb0cr1aFQ2k/++yznWMK27nK2Y7pmPbnBsOanGFMU84iyfrCqWekLa2kOZuUqjWTIr4yOBQufjPPKeO5ggV9nJZ6zSD+6quvut2aBRT2MYwZIORBHhdzPKpxamxgxpHBS/iILCd/yHOGsGv2od/cvTY/8JQgj5JdDmjxlbO5I7N2rg2NKlhMFuJBTgs5SS46lPmSjWvLspGX7AFyEX05KoIO5CXHVMCBc1oZ8HOlsXGjMZ5U5YBn0bgcVcEJn+NdAYkxiYI5sUVnASP2CB6mH9EZjQVtK7CEz9OmQyCO6Q5LSs3ufx999FHWmE43t2a5U2XWbty40RyBlK2SLbO2lMJrbYwIC9pl9WotUOs9TvV6CkVQxy69SqTh22ocMtSUPd26dauLPs6RQWD0/DBjKe9V9C0FzciClSCJTDOjjAzioLrGAbtW/K767eH/KFwHZ7MMLMayjY0ECGRJKeFzif4ymGzi9e233+6dgTM/YfTqq692gaq510cPaXjO78kbfMSYtZbNRmOcVZsmMXT9Dx+VoTs3L6FFn6fwlbnBcBXgsc6Q7pJRY+S6Nu0hAhfJRvt+kIscVA4MWpZcLHrW+eGd5nlVtC2ZWUEHNEZXu/KzCVSZnHoQ7xCE0ZCTij/Z3JxUstch4CSwNNSBx6KxcfXpXHqR01mbk9GP+FmQaa7g+SH4nsp345juKCkip/ZdxA5jpK0XgRISFADB0dJkTJWQcE7GCDuGKMOCUNKPU84gteDqWnhyrERCGYet+HJkKXvZOlHnuYQ++s+5+dFVuMGkDuOFFyPavOScws6hjz5jdFPgU2aAzFnZaVF+h427RPbxk9eCAxws15jv52JAo4N5iw4tcxdGVebMIE07DgLFR4xYOhv96igZ5CyjWhUJxUtT9pDMErAkr4qnyLBruyoD/ERXeF/XuL6M3yn7sfV7FT2d+7KRQ0pfk4kqcdCYrebMbnMt+VgBiClxICvxN5qRh3S+zKhggxLdsgVk0vzPNZUhPRe52Yp3n87ohzdlSwUfBCEsr1HyK8jkPd7u60H8PnVjRxadi4+rakhm1Gt0x8v4GJ3Dx1NT4dH7xTHd4VHROgzgNeZxLsejXvtc8zlBWAqm/u9/9Xp47UX3cg2m8B3N/er73tfr/r3muvaq8ezbxznGAxP3LSz0hVAgQFqFP8OEMKTItP59h79z0Xuf+W3KhyBLe4gALB3wdVR7HMZ1HZoUvrVu1/up25yPi2nta2HDuKKcGVwOTiml7KwE2Gf+T4lT1BV19l6r916bn2SNA44wNFcZTt5bIyrKLwLMoKJwKV7OKKV7rnPb/EMHR7WiDyzhOHxf15FFcCsZX5/nfDwEigfQsRwX/MOpqffFY3gIXxX/oHnJLDqCrilZVGc01pzxCV7yGl/hI04pHsJfPsNTrimeqjl0PES2/UvFa+jCLuOIcl68R0/yET0d6FkH2qFhX1YWEhfR1v/QuGjl7NDQt5zOorFzHWjtWvI1vN9B1vwHvfBu8WDxqICE1339h+7eo7XmO0V380VzRmdnNKEPq7Edi3d9ju54Fe+ipaNPW3rS/8yDOnwnbX4E4phegLFJjVlK2GAek9rnNeFLeZmo/Wv7/3dr96hrvb/sXnVt/17Da/XB//3m8HfHXOs79bteX3TfseO56F5j+ug+vlff9X6qNrzv8L2xFz3Qcfh+qn6c8n1gWnNoTlrui6FyIeXcd+7cmX3zo337NLzOnKNwKWdnCrmUMgPN/ynfUtBeV7CFg0ROmK+UrrPPSvFStBSug1EVh2qI/sP3j5MHD6/MqzUigH6MV8ZsGbll8Hrv0Dg+5Zg6+x5ZVbzBiC1nxRlflVNS7+vsWvyXNh8C6IV25F85Kl77rGSj1/5XclFvLqKtz9G6aFpy0uecGI4K2vq8ggz+lzYPAiVz3R0t0axoSQfSf95r/uc9OrMxtOL5sjlkN6sJIKAlHYhP6UZ07QeUvOeEJvFQqC1zjmO6DO751SAQBBZAQHmfUt4vv/xytY7pArDkJ4NAEAgCQSAIBIEgsDgCcUwXJ0E6EASCwLEQsIblh93mR2vOmB4Li/xOEAgCQSAIBIEgEATWhEAc0zVRI30JAkFgVgTWtMZ01oHm5kEgCASBIBAEgkAQ2BgCcUw3RrB0NwgEgfEILLkr7/he55tBIAgEgSAQBIJAEDh9BOKYnj6NM8IgEAT+D4Eln2MaIgSBIBAEgkAQCAJBIAhcjkAc08uxyX+CQBA4MQQ8q9KuvPfu3cvmRydG2wwnCASBIBAEgkAQ2DYCcUy3Tb/0PggEgQYE7t+/3zmmd+/ejWPagFsuDQJBIAgEgSAQBILA3AjEMZ0b4dw/CASB1SCQUt7VkCIdCQJBIAgEgSAQBILAIwjEMX0EjrwJAkHglBGw+ZFS3jzH9JSpnLEFgSAQBIJAEAgCW0QgjukWqZY+B4EgMAqBBw8edM8x/eKLL1LKOwrBfCkIBIEgEASCQBAIAvMgEMd0Hlxz1yAQBFaIAMdUxvTOnTtxTFdIn3QpCASBIBAEgkAQOF8E4pieL+0z8iBwdgj88ccfT/z4448p5T07ymfAQSAIBIEgEASCwNoRiGO6dgqlf0EgCEyGwN9//91lTD///PNkTCdDNTcKAkEgCASBIBAEgsDhCMQxPRzD3CEIBIGNIPDXX391jmnWmG6EYOlmEAgCQSAIBIEgcDYIxDE9G1JnoEEgCPz555+dY3rv3r1kTDMdgkAQCAJBIAgEgSCwIgTimK6IGOlKEAgC8yLwzz//dLvyfvbZZ3FM54U6dw8CQSAIBIEgEASCQBMCcUyb4MrFQSAIbBmBZEy3TL30PQgEgSAQBIJAEDhlBOKYnjJ1M7YgEAQeQeD+/ftdKe/du3eTMX0EmbwJAkEgCASBIBAEgsCyCMQxXRb//HoQCAJHRCC78h4R7PxUEAgCQSAIBIEgEAQaEIhj2gBWLg0CQWDbCOQ5ptumX3ofBIJAEAgCQSAInC4CcUxPl7YZWRAIAgMEHjx40G1+lMfFDIDJ2yAQBIJAEAgCQSAILIzA/wIAAP//RgtU6QAAQABJREFU7Z17txu11YcdaLikhFAgQAi5UvIluhYfo3+0X7JQ4O+234JCmvvtnAQoIZRb4e0zeTc4xp6R7BmPNPNoLR/bZzQz0rM1Xvppb0lH7t+//9PCJAEJSGAGBA4ODhZ/+9vfFn/9618Xh4eHi59+6v75O3LkyOLo0aOLP//5z4t333138eabb86AlFWUgAQkIAEJSEAC+yVwRGG6X+DeTQISGI/A7du3F3//+98XH330kcJ0PDN4ZwlIQAISkIAEJPArAgrTXyHxHxKQwFQJ4CVFmL733nsK06ka2XpJQAISkIAEJFAlAYVplWaz0BKQwDYE7t692wjTDz74QGG6DUDPkYAEJCABCUhAAgMRUJgOBNbLSkAC5RG4c+dOI0w//PBDhWl55rFEEpCABCQgAQnMmIDCdMbGt+oSmBuBBw8eNIsf/eUvf1GYzs341lcCEpCABCQggaIJKEyLNo+Fk4AE+iSgx7RPml5LAhKQgAQkIAEJ9EdAYdofS68kAQkUTuDevXtNKK/bxRRuKIsnAQlIQAISkMDsCChMZ2dyKyyB+RJgVV72MX3//fcN5Z1vM7DmEpCABCQgAQkUSEBhWqBRLJIEJDAMgVu3bi3+8Y9/uI/pMHi9qgQkIAEJSEACEtiagMJ0a3SeKAEJ1Ebg4OCgCeXVY1qb5SyvBCQgAQlIQAJTJ6AwnbqFrZ8EJPAzAeeY/ozCDxKQgAQkIAEJSKAoAgrTosxhYSQggSEJ3L59u/GYfvTRR84xHRK015aABCQgAQlIQAKZBBSmmcDMLgEJ1Evg/v37zeJH7733nsK0XjNacglIQAISkIAEJkhAYTpBo1olCUhgPYG7d+82HtMPPvhAYboekf+VgAQkIAEJSEACoxBQmI6C3ZtKQAJjELhz504jTD/88EOF6RgG8J4SkIAEJCABCUhgAwGF6QYw/lsCEpgeAUN5p2dTayQBCUhAAhKQwDQIKEynYUdrIQEJJBBg8SP2MdVjmgDLLBKQgAQkIAEJSGCPBBSme4TtrSQggXEJuF3MuPy9uwQkIAEJSEACEthEQGG6iYz/l4AEJkfg8PCwWZX3/fffd47p5KxrhSQgAQlIQAISqJmAwrRm61l2CUggi8CtW7eaUF73Mc3CZmYJSEACEpCABCQwOAGF6eCIvYEEJFAKAT2mpVjCckhAAhKQgAQkIIEnCShMn+ThNwlIYMIEnGM6YeNaNQlIQAISkIAEqiagMK3afBZeAhLIIbC8Ki9bx/z000+dpx85cmRx9OjRxZ/+9KfFu+++u3jzzTc7zzGDBCQgAQlIQAISkEAeAYVpHi9zS0ACFROIfUxZ/OiLL75Y/Pjjj521eeqppxbPPvvs4o9//OPiD3/4g8K0k5gZJCABCUhAAhKQQD4BhWk+M8+QgAQqJfDNN98s7t69u7hx48biu+++S/aYPv3004vz588vXnvttcWxY8cqrb3FloAEJCABCUhAAuUSUJiWaxtLJgEJSEACEpCABCQgAQlIYBYEFKazMLOVlIAEJCABCUhAAhKQgAQkUC4BhWm5trFkEpCABCQgAQlIQAISkIAEZkFAYToLM1tJCUhAAhKQgAQkIAEJSEAC5RJQmJZrG0smAQlIQAISkIAEJCABCUhgFgQUprMws5WUgAQkIAEJSEACEpCABCRQLgGFabm2sWQSkIAEJCABCUhAAhKQgARmQUBhOgszW0kJSEACEpCABCQgAQlIQALlElCYlmsbSyYBCUhAAhKQgAQkIAEJSGAWBBSmszCzlZSABCQgAQlIQAISkIAEJFAuAYVpubaxZBKQgAQkIAEJSEACEpCABGZBQGE6CzNbSQlIQAISkIAEJCABCUhAAuUSUJiWaxtLJgEJSEACEpCABCQgAQlIYBYEFKazMLOVlIAEJCABCUhAAhKQgAQkUC4BhWm5trFkEpCABCQgAQlIQAISkIAEZkFAYToLM1tJCUhAAhKQgAQkIAEJSEAC5RJQmJZrG0smAQlIQAISkIAEJCABCUhgFgQUprMws5WUgAQkIAEJSEACEpCABCRQLgGFabm2sWQSkIAEJCABCUhAAhKQgARmQUBhOgszW0kJSEACEpCABCQgAQlIQALlElCYlmsbSyYBCUhAAhKQgAQkIAEJSGAWBBSmszCzlZSABCQgAQlIQAISkIAEJFAuAYVpubaxZBKQgAQkIAEJSEACEpCABGZBQGE6CzNbSQlIQAISkIAEJCABCUhAAuUSUJiWaxtLJgEJSEACEpCABCQgAQlIYBYEFKazMLOVlIAEJCABCUhAAhKQgAQkUC4BhWm5trFkEpCABCQgAQlIQAISkIAEZkFAYToLM1tJCUhAAhKQgAQkIAEJSEAC5RJQmJZrG0smAQlIQAISkIAEJCABCUhgFgQUprMws5WUgAQkIAEJSEACEpCABCRQLgGFabm2sWQSkIAEJCABCUhAAhKQgARmQUBhOgszW0kJSEACEpCABCQgAQlIQALlElCYlmsbSyYBCUhAAhKQgAQkIAEJSGAWBBSmszCzlZSABCQgAQlIQAISkIAEJFAuAYVpubaxZBKQgAQkIAEJSEACEpCABGZBQGE6CzNbSQlIQAISkIAEJCABCUhAAuUSUJiWaxtLJgEJSEACEpCABCQgAQlIYBYEFKazMLOVlIAEJCABCUhAAhKQgAQkUC4BhWm5trFkEpCABCQgAQlIQAISkIAEZkFAYToLM1tJCUhAAhKQgAQkIAEJSEAC5RJQmJZrG0smAQlIQAISkIAEJCABCUhgFgQUprMws5WUgAQkIAEJSEACEpCABCRQLgGFabm2sWQSkIAEJCABCUhAAhKQgARmQUBhOgszW0kJSEACEpCABCQgAQlIQALlElCYlmsbSyYBCUhAAhKQgAQkIAEJSGAWBBSmszCzlZSABCQgAQlIQAISkIAEJFAuAYVpubaxZBKQgAQkIAEJSEACEpCABGZBQGE6CzNbSQlIQAISkIAEJCABCUhAAuUSUJiWaxtLJgEJSEACEpCABCQgAQlIYBYEFKazMLOVlIAEJCABCUhAAhKQgAQkUC4BhWm5trFkEpCABCQgAQlIQAISkIAEZkFAYToLM1tJCUhAAhKQgAQkIAEJSEAC5RJQmJZrG0smAQlIQAISkIAEJCABCUhgFgQUprMws5WUgAQkIAEJSEACEpCABCRQLgGFabm2sWQSkIAEJCABCUhAAhKQgARmQUBhOgszW0kJSGBbAj/99NPiv//9b/Pi848//rj4/vvvF3wm8b78Pe7DOeQ9evRo86/nnntuceLEiTjsuwQkMCMCP/zww+Kbb75ZfP31183vBVX/zW9+s5YA/3/66aebY88888ziqaeeWhw5cqT5H//ns0kCEpDAFAkoTKdoVeskAQlsTQChGQKUziSikxefQ6B+9913TwjT5e9x48gbHcuXXnppcerUqTjsuwQkMCMC//nPfxZffvnl4rPPPlt8++23jbhsE6ZxjN+PEKqIUga6+I5Y5XOI1hmhtKoSkMCECShMJ2xcqyYBCeQRQJAiKEOI0pF8+PBh05HkSiFS8666WDz77LOLkydPLs6cOZN7qvklIIEJEOB35P79+4uDg4MmkiKnSghRBCqJd35Pnn/++cWLL77YfF/2oupNzSFrXglIoDQCCtPSLGJ5JCCB0Qh89dVXjVcjxChCFKGKYCWFNzW3gArTXGLml8C0COwiTCGBZ5SE8OTFdwTpsWPHFkRjvPzyy83/Il+T2T8SkIAEKiOgMK3MYBZXAhLolwDCk9A6vKMIU+aA8X1ZkO56x5qEaYQxw4EXHHITXh08Or/97W9zT91r/pgvjGggHHuMhMiI8MwQHPBDdCAyShMaMVcSZjFgMwa3vu4Z7RQbwH+otKsw3VQuys38dZ6148ePL1544YXm+6b8/l8CEpBAyQQUpiVbx7JJQAKDEghR+u9//3txeHjYLE6yjRDrKiSdR0J5z50715V19OOIDTzF8Pj888+bz7mForP/u9/9bvH666/nnrrX/NiawYi7d+82InyvN///myE8EaK8QogykMH3mFsYcwo5jniK1xjlRcB/8cUXizt37mSHpI5R3q570k5fffXVRtjVKEyjfpT9lVdeaTynhPjym2OSgAQkUBsBhWltFrO8EpBAbwRYkIRO9r179xpROqQHCGH6+9//vreyD3UhGMDl5s2biwcPHmx1GzrFdPjffvvtrc7f10kIcOqI/fEOl5TwguE15UWoJiGbCFbYIlSHFFFtHBCmLOBz7dq1SQhT2L722mtNex3SOz2Ux3TZVrQZvKY8e4hUkwQkIIHaCChMa7OY5ZWABHojgFcQYYLHlLDOoVJNHlM4INbxIsJlm4Rowmtz6dKln72A21xn6HPCY3rjxo1mkauh75dz/RBJsAzPKcKUUE3eEaohXnOuu2tehel2BPchTGkztA3E9ltvvVX0s7cdRc+SgASmTkBhOnULWz8JSOBXBPAKMlcOryDhqswp3SXh1WrzYCEgWJzk9OnTu9xmL+ci1gjTZAVRPKfbJoTThQsXmrmmpYYV0gYQDLQDQnpLTwhU2hLvzClEpPLiewjZoeugMN2OMB55PM1459sGwWiTuyR+i2gbb7zxRuM9JSTcJAEJSKAWAgrTWixlOSUggd4I0PlDiOApyxUkCABEKB1APoeXYlWYLn9HmOFBLD28DsGOMP3000+bxaD4vG3Cc0OIJHVmzmmJiVBeBiYQ4qWF8nbxok0hSuEbYb60SdJy2+u6Tu5xhWkuscf54cZvDeKU52rVRjGNgEEyhCuveB7jc+qdGag4ceJEs28ybWT1XqnXMZ8EJCCBfRNQmO6buPeTgARGJ0Dn7/bt29ne0vBY4YWg44dngv+t6/ghWEMoREe0VM9hGIQOMB3ojz/+eGehRl0JKcRzQ+e4xIRdEKTMl8RzWlui3fGCMwKVd9rcuvbYV90UptuRpK3xfGGb+D1Y/n3gGCnEKJyJWCCcnjbKIEpq4reHwSDCefmdivuknm8+CUhAAmMRUJiORd77SkACoxCgA0iHL+YVpobO0dFDYLG4COGUeATbQihDNFDJ6HTSYSw5IdgRaNevX+8lvBnhTvgy3uIS647t6fjfunVr8ejRo5JN01o2BgEQICx6w/umwZLWiyQeVJgmglrJhuDkxe8C76R4JuL3IU7hOy/a5zfffNMIU55L2mqcG3nXvXMPxOjZs2ebNmE47zpK/k8CEiiRgMK0RKtYJglIYDACEcZ79erVRnytdgpXbxydPDxSdPwJm6Sjx/+nlhBnzC1lUagcD806DvBBML355psNN8R8aWkqwhSutEkGTfCaMhDA9xA+fXJXmPZJs/taeFdhjjA9ODhoRCr/S0lEK7AaeKkRCyl1MI8EJDAvAgrTednb2kpg9gTo5LHq7JUrV372ZLZBwfOAGA3P31TD4vDEfPnll818S95TO79t7DhGx5gXnrzSEnXcJpQX0b3rwER4vuK9DzYIUTz5tFV4R+j4rmVdLhvPD/Ny8ar31Ua2YdBXnRDyzIXmfQghv8xul88xH5rVslO9+wxUsJcwz59JAhKQQA0EFKY1WMkySkACvRGgU8cWMSx40+Ut5aaxiA+r6hLO21eHuLcK9XQhRAae0r73p0Qg0fF/9dVXeyppf5eJzn7u4kd4fxms2DYhxAib5h3uiL2+Eu0TkQVv3hlI6bPNUlZCSlOfn656LbPoyhvH8Qb3NUBEFASssGefnKKsfb3zWwV7ws4ZWEtpM7RThClRCyYJSEACNRBQmNZgJcsoAQn0RgBvIFs2IE5TPDV0WEvf9qQPOHR0EaZ4wroScxhDVHXlhR/ClBceqZI6/4TyEiKZs10MdUfMENqNWIg6wWP5O1xi4CM8cfEdBiEsEKaIVEQyL8rEi88p7XMdf4RbiFPCOPsScdwryssKs9uWb7nM1BORS51TE4NEeAP7qBfijbnQfQv41Lqk5ov2xaJtrOybsop0DKqdOnXq53aaej/zSUACEhiDgMJ0DOreUwISGI0AnTo6wgiSro41AoL5eu+8807TcQ2BMVrhB7wxPBCmiPauFHPWWEQKodKWCCcllJDOMZ9LE6a52wbR2WfuHvWh7rQJXiEcqF+0E46v+87/ghvnIcpCnPLOgjd49vkc+doYrzuGdx8BPQR3yrxtuZbLynWoI6tAh1BfPr7pM6vN4uWMUOVN+VL+H/ZLyVtCnhhUw2vdleDDgBBtYMgFsbrK4XEJSEACqQQUpqmkzCcBCVRPgI4wi/vgIaPz35Xo2OF5Onfu3GSFKUxIdHgRpin7uob3E+8z4jSusYkn3kXmPSKWQrRtyrvP/+OtY6CCeXspHijKFsJ0qPBIBB9MmceJ+NjFM4nn9NKlS02Yah/exb5tgwcZ7tsIUwY7SlxQq29Gq9ejXfAbxisl8ayyOq/CNIWWeSQggbEJKEzHtoD3l4AE9kaATj8dOsLhUoQpQoqwQTw0eLl4TS0hKuGCFxk2KVzggWink4w4jRDVTWwIlURI8KKDXEqi3uExxWOckoYWptgDnohmysZ8Qt7xKFLenARrbIXntEQRpzDNsebjvLFyNr9hKQnPMm2AdlvSoFBK2c0jAQnMj4DCdH42t8YSmC0BQiaZW5oqTJkfSccOb99UE+IA0YMXGe9hm/hBmCN28CAjdBBNeBu75gfSKcbzTAcZL14piXIjrFlQBvGXkoYWpstlwC54FCkb7TbVqxvXQIjAndBj5mSWJkwUpmGp9He86Qwg8bymJKIVeO54Xkuzf0r5zSMBCcyLgMJ0Xva2thKYNQGF6a/NjxDFC0NHt2veGh1bxDrCFG8yXkZW8WWeYFs4L2GkCKPz588X5bnBK4m4xlsMg5S0T2FKeRBv8KWMDBxQ5tTEQAIDAcwxxPNP2UtKCtN8ayhM85l5hgQkUA8BhWk9trKkEpDAjgQUpr8GiNAhJJc5pl1eQwQmHjjmVyJyyI/3GVHX5mnlrghZBC0LJ/WxaM2va5L/H8qMFxJxXUoo72otQvBjI+YAI05zEyHUeM4I6S0pKUzzraEwzWfmGRKQQD0EFKb12MqSSkACOxJg/iQde0RYylxKVuSlU88CIlNNcEjdGxFBGTwQpnjyEKYp+youe+5Kme/IQAVlD3GdYuN9e0yjTOHdjYWaEHWpib1kEabsaVlSUpjmWwNhym8Y7SBlJWNsTyg37yUugJVPwDMkIIEpE1CYTtm61k0CEniCAEKKuXqpwhTvIKKUTv0UU4TxXr16tVkJtk3sEMaLoCQslE4uAg1hRweZOW90mNsSc1M5D3FUynxHyk/4MsK81FDeZaZ4d2F9cHCQFdJL+DWhvHi6sWMpi3gpTJetm/aZ54zBlPgNC4/6prP5DeOZ7Wvf10338f8SkIAE+iCgMO2DoteQgASqIIDXCWHKfL0Uj+nUhSlCnU7ujRs3OoUO3lLCcGPbF4QmwpYQU3h2hQHHfEcWYkEkcf7YKYT59evXiw3lXWZE+4Uz5c1ZCAlvNWG8sId7KYvgKEyXrZv2OVeY8qzxzDI4UYrd02pqLglIYI4EFKZztLp1lsBMCUQYHB4nhemi8RKGBxnvYVtCmBLafOHChUbcIDRDWCBsEbhdiXPO/28BJFY6LkGYxvxahHWq0BsrlBe2CGnaMAtVMSe2y2ZhD4Qp3mo8Z3i9SwnpjPbjPqZhqe73XGHKM0soL4Nspdi9u5bmkIAE5kpAYTpXy1tvCcyQgML0SaOHtxORg0hoS3hL8b7QyY0OLmGEy1vNpAglzic8mr1Nx06UFw8kwrrL4xtlHVOYwhsxzcBKzvYxeMoQKGfOnGkWoQr7RZ3GeleY5pPPFaZ4ygnh5nkrxe75tfYMCUhgLgQUpnOxtPWUgAQabxMLh+gxfbwNCau8poTx0nQQpQhKPG8REohQQlzgcUwVSnSUY5XYsZtkbcIUXnhN2XuVub0pXupgzMACwpT3ErzVlEthGtZJf1eYprMypwQkUB8BhWl9NrPEEpDAlgT0mP4CDs8b4oaw0JTEokV4O9n2ZXXxHBZiYVEeBFNXQhghTGOF2NVrdZ3f53EYxAqnNYTyUnfEHGHo2I3BgNTEHEOYs5BXKdv1KExTrfdLvlxhiqccuxPKW8qAxC+18ZMEJCCBJwkoTJ/k4TcJSGDCBBSmvxiX1WjxHCMouxJzFOnc4jFF1KyKSUKCuU7KtZjjiDgivJDQwtVrdZWlz+O1LX5E3RWmi2YRJwY3Stl2qM822XWtXGHq4kddRD0uAQmUREBhWpI1LIsEJDAoAYXpL3gRpYTypno5EaYsWoSQXBWTcMV7R1hwV0KMEg6M95V5b2N6cQjlrWm7GNgiTPH0whr7pSY9pqmkys6XK0zdLqZse1o6CUjgSQIK0yd5+E0CEpgwAYXpYsG8UF7MC8XDmRLCyrxQhCnv6xKeR7ymly9fboTTujzL/0Mkxf6weGPHSgg85mnCooZ9TOGE7RDUbBnD4EJqUpimkio7X64wjUEg3l38qGzbWjoJSGCxUJjaCiQggdkQUJg+9rghJPG4ISZZVbcr4d3EW3r8+PGNWfE8Xr16tZn/iFevLbGyLSGGbF/C57ESHGgT165dS/IcU84xV+Xl/gpTQ3kZTGFeN3ONaQ9tibB59q8l7DkWLWvL7zEJSEACYxJQmI5J33tLQAJ7JaAwfbyqKx1aPG6Iya6OLQZ6++23G29p26I5eF5jziqeyLbEdRC5p0+fXuDJG6vDrMe0zUrDH3Pxo3zGekzzmXmGBCRQDwGFaT22sqQSkMCOBBSmi8ZDykq0eFy6wniZS8oc0HfeeacRkm0CEs8rQhdP7LfffttqKa6DB+fs2bPNdceaZ0pILHNsb926VcU+pkB1jqke0xyPqXNMW3+KPCgBCRRGQGFamEEsjgQkMByBuQtTvKOIUYQYgqzLs4lgREBeuHCh2f+yzTKIPK595cqVJjy2yxOL15R9Nek4jxXOW+uqvGFDBhhSk3NMU0mVnS/XY+qqvGXb09JJQAJPElCYPsnDbxKQwIQJzF2YIsS++uqrZk4l4bx8b0ssTMQ+iBFy25YXTx6eUkKEHz58mCR6WQCJuauszjtGQpjXto8pAwDhMUtZUTm4KkyDRN3vucLUfUzrtrell8DcCChM52Zx6yuBGROYuzCNOZV4NRGSXV5NBCP7jbKiZ9v8UpoU10LoEsqLcEL4tiXCeV944YVmASS8OmMkRB5CnTLznpLGXvyIMrNoFfN5c4QprPFQ8z5W6PQqX+eYrhLp/p4rTFlJm2eYZ9lVebv5mkMCEhiXgMJ0XP7eXQIS2CMBxFLMr+wSThSLMNPY1mSPxRzsViHM8Wp2JYQjgpR5oIixlE4tQuPu3bvNnqYpQg+xizf25MmTo4il2oQp4p/BBUQp+8Z2zREOG2NLPGcI0+effz7JlnHukO8K03y6CtN8Zp4hAQnUQ0BhWo+tLKkEJLAjATr1dOjZt3KOwhQP2+HhYdL+l4Tx4slkqwlEKeKmKyE08OZxD95TElvRsEcqoab7TrQHykl7SBV5Y3pM8UgjTG7evNmESyOsUxK2ZJCB7XmYM5wyyJBy3V3zKEzzCeYKUwYkGFzDc1qKpzy/1p4hAQnMhYDCdC6Wtp4SkEDTqcdjisdpjsKUeqeKMMQMeyCeO3euaTms0NuV8OixOu/t27cbz2lXfo4jfqPjnJK/zzwIPQQp+5gyLzYljSlMEdIxRxiBkpqwJcKEQQbEScogQ+q1d8mnMM2npzDNZ+YZEpBAPQQUpvXYypJKQAI7EqBThzePcNOuhX+41VRCeSMElHqn1p25iITY4tFMTdwHLx5b0SCAUzx6zH1DAHMfBFOKAE4tT1c+yscWN6xS/OjRo67szfGxhCkiDlFK+2VwJYVtVAhvNAMAzDXcN+Mow7p3hek6Ku3/Y+AnvPwMrvHMtSU9pm10PCYBCZRGQGFamkUsjwQkMBgBhGmIppSbTEWYhqih7vfv30+perNaLp5MQkBTE51k7kW4NN7ZFC9kePMQTXzepzcPccdCTXh4SxemiBAEKYIfz2mXIFm2Gd5SVj/mVVJSmOZbgzaLMGUwRWGaz88zJCCBsgkoTMu2j6WTgAR6JEDYJuIMr2FKmpIwRSzibcNDmJKYj4gXkzmJuQlBigBO4cwCSIhf7sXCPPucB1dDKC8ClBcCOrylufYghBfv9za2zL1XTn6FaQ6tx3lzhenx48ebOdzOMc1n7RkSkMD+CShM98/cO0pAAiMRwNNA5x6RlpLozCPQxtpnM6WMKXkQYHja8LileAYJV6XeeNi6tolZd//w7jF3sysRugvfmGeK13RfqYbFj8Kri9Bn8aqUEPTgB1t4IkwRJtvYMq41xLvCNJ8qgxT8jrGydorHlDBuQuVZYKw0++fX3jMkIIGpE1CYTt3C1k8CEviZQISypu7/iFgixBRPXq2JjiwCjL1L8WTyuS0hZphfigeTeYnbhNYinvDw/fOf/2y71c/H8ORxLzrP+/TqIfpoC4RFpmxvQ4H3NccU0YatGEggLJp35hfmJGyH1x9b4jnbxpY598vNqzDNJfY4P89WtFkYtiXaK22AwYl9Dvq0lcljEpCABDYRUJhuIuP/JSCByRG4ceNG4zVM2RqETjzCNLbYqBUG4ou5tZ9++mnSSsQIUzyl1J2FU7ZNiOCPP/64WaQHcdyW8OQgnOg84+GhDPtICGgEKe0iZT4sZRpSmMIpXrRRxCjCGU93F8NVXuEtpf3iLd2n4F8ty6bvCtNNZNr/T5sgAgKB2iVM2RqIZ+v8+fNN2y1tcKK9ph6VgATmRkBhOjeLW18JzJjA5cuXm85ciueJjjwePATaPuc99m0ewv0IXWa+Z0q96bhevHixmfe5i4cFMYxXhzmtXfel8wzvs2fPNp3ofe2ziUcSNnjSUwYrsM2QwhShzEAC5WJBJsRyF7tN7YU2i+cbpnj8SxQkCtNN1mv/f44w5Uo8W2z7hEA1nLedrUclIIFxCShMx+Xv3SUggYEJ0PmNDv+//vWvprOf4n2iM4e3CWFaYqc+FRteN0Rp6hYjiMJ33nmn6cTuIsgRxMznZW4kn9sS3j0YX7hwoQk73FfnGREYHtOcUF7aBOGxfSTaIuX49ttvG3GMQOYzzBCoKW11XTmYtxt7xMJzX17odWXZ9D+F6SYy7f+nbTDP9ObNm0nbBmF/5pnSbmufL99OxqMSkEDtBBSmtVvQ8ktAAq0E6PzS0UeY4Rnjc1eiE08YKx5TOnS1JuqO1y3moyHQ21KEfyJM6cDuIsgRVXhLc7ZiiQWX8PTtIyEI4UMHP1WYItZpG8zb2zVhjxg0gVcIUsq1S8LTTfgui3ftasddytF1rsK0i9D647QV2i0LINFm4NiWGGyiHTCYwgrYuww4td3HYxKQgAR2JaAw3ZWg50tAAkUSCE9TiA9WiCUssqsTR2XouOFdQJTuSyQNAZG6Mw+NOZR0YIPJpnvhWaG+zEfDY7xLQnDh2YE7oYdd9+ZeCD46z/saDKCDj+eJ+XqpobyUk45+H15d7t81WMD9chJlQzQjShGnJSeF6XbW4bkmEoJ2y4AK7agtxYATc8dpE8zjZtCpRC96Wz08JgEJTJ+AwnT6NraGEpglAYQQnX6EGd7S1AVk6NgjyvCW0sFnTmGtCTHKHEo8KynCEK8KnVdeu8wvhReigw40ohjx19V55hzmQuI1hf0+Eu0DQYp4xgOVk/ro1KfYJKdMDKgwjxBRisjvQzzn3D83r8I0l9jj/LQbniciIfh96wqV5yzaK89XDFrwG7dLRMR2JfcsCUhAAu0EFKbtfDwqAQlURoDOLoIDUYQYJZwU8ZEijKgqnfnw3CHUEKq1JjqtMc8zpQ6E+bE9Dl7TXcP96DzzIpSXeaYshtSVYI0oxWuKMO5D/LXdkzZC+6CDjweq5gQvRGl4+WnHpQsPhen2LS4G3ZieQBtOSbQHxCnthN84PKe0m5p/41LqbR4JSKAeAgrTemxlSSUwWwJ0YFcToif+zzsig3cEKCG7eAsRZrzTiUtJdNwQo3icaveWUl86rbxSRBd1Z7EctmzBS9yXqGEPTsQx4bwpCW8t4hRx3FcZNt13KsI0xAYDCzGHcGhRv4lpzv95Xhk0YluhnNWHaaM8o7uGm+eUtbS8/P7BjOcrZYGxKD/PFIMWiFKeMdoO3xGnDEYtP3O0oeXvcQ3+X0P7ivL6LgEJ1ENAYVqPrSypBGZHILxuiE1EBN8jhRjlO8cJZ0OE8qLDltPR5Rp0tOjoIs4IJ6Wjtq5TRt7SU3DDW4kwTWGBGEUUUnc6qH11PMNrS0jxsv02McSTE+HE8O+rHOvut0so77rr7fN/cIEPL+ZDM5CC2KDdDsmszzoqTHenSQg6zxYCFZ4pz1jcFUGKx5Rnnxe/f3yPRNtajpygXdG+yMMxkwQkIIG+CShM+ybq9SQggd4I0NFCaDJHEYGzKrCiE8Z7dMriPY6lFIYOF50tvDCEQuJFINXSwV+tY3AjRBVvSgqL8BTHNih91R370XGOfVS7ykIHGa8fXrGhw1EZ0Nhm8aNV3mN8p40i4gnLxPO1LBb6st3Q9aKd6jHdjXIMrvCcM3Vh9Tey7eq0k3jFIMdq21n+jnBl0Ih2tyxg2+7hMQlIQAI5BBSmObTMKwEJ7JUAHVfmJhIKSqcLkdN3ooNFR4vOPZ38WLGy7/vs83p0VgmdRQwi6FMSHrdYiTglf2oePN2IvwgpxqZtiQ4yNmBPU8QXHpqhEmXL3S5mqLJ0XRcOCHVecIERLz6vhmB2XauU4wrTfizBAAsCn7bMc0/oPm2770R7I8yelX0ZQDJJQAIS6JuAwrRvol5PAhLojcAQwhQPQHTyecdTSPguna5aO/irwOmUIkoR8ynzS+EQ4bOI9D5TiGQGFxDJfO9KdHrPnTvXDBQM6ZmBE9ttsHJw6j6mXWXv63h4sLANn/FW8UKI0mbhwjFetSaFaT+WgyOvGGjhOUOo8qzxv5RnLqUkCtMUSuaRgAR2IaAw3YWe50pAAoMSGEKYIj7pYMWcPDr6dPinlAjnu3z5ciO26Ji2JUQPQjA8IUOwQBwTasg8uK7yUFZEV+xnOkR5ggeeJsKM8ebSkS8pUW/swjsv2unU2qrCtP8WhwglsoSVepl3jxc1ZXAqpSQK0xRK5pGABHYhoDDdhZ7nSkACgxIYQpiGh5R3OlpDz2McFNCaiwezTz75pOmYds3pDGHKNjGE6MGj7xTzhG/evJm0bQ+DB3ixEafYaahEJz48pnTgUxPCGZHYR8LjGV5h6o0Y5Z1XeEtXvad93LeEayhM+7cCzzvtmsGpCO0lvJdBmK7fgq7SKEy7CHlcAhLYlYDCdFeCni8BCQxGIERWn3NM6fiHIMUTxWfED4JseaGPwSo18IXpkOItuXbtWrIIJHwXEcgcW0RQ3ylCDK9fv96IZezalhBkzPllhWDKhEgbIlEuOu0sEpUaykvZEPAIZ+oRvOJzdP75f9STdhXHV9sY36N+XHtZkK7mHYLBmNeEiYsf9WMB2h0v5uTjIeWdAaFYrTwlUqGrJArTLkIel4AEdiWgMN2VoOdLQAKDEaDjOuTiR3iqED6sxEuni++Ig5pThM0Snpoyt4w6x6JHy17AEFghjqLjy3deOd9DgLB9DV6crk4y12cAAbHMCr3YZoi0zaq8US5EM3yXhSlth7qS+Ew9gxf/J2/kH6I+tV0z2oX7mO5mOZ5FWCJCmV/K3PLUgZacOytMc2iZVwIS2IaAwnQbap4jAQnshQCdrSGFKZVAOOClQgAh0HivOeEBvHPnTtNBhV9XCmHKnFs8yJEQVXR4I7QXEcYrPMur37kX58RxviP8+M51sGNs+5O6unIIZso2RKIOeOzwLqeG8i4L07YyhXhfzcP/TY8J0Eb0mO7eGnju4Mgcbp7/1Ocr984K01xi5peABHIJKExziZlfAhLYGwEEDeIBLwDCYZPQomOGCOJFKOumfG0FR0DFyrSEkdaYqDusYmsW+HUlhBJii/ove4s5l1d4+DZ95/wQYeRZ950yYMewUap9EKTYhP1lh0i0G3jhyU1dICaEKXNyTbsRUJjuxo+zeabwjrK4GL+R/AbwHOYmRCcDdDy/DFbxvpr4jSDsP6Y+rB73uwQkIIFdCShMdyXo+RKQwOAEYp7UphvRwaWDhtAgL50zPuM54D1VCNE5CzGE93BZqG26d0n/xytJGB8eU3jUnugAE2ZN2GwI3j7rRNtgPi5zTBWmfZJNu5bCNI3TulwxUET75ZknGoH2nCpKGWDhNy6mLxDGz+8dzxkCdF3iOMd4xYDVunz+TwISkMC2BBSm25LzPAlIoEgCseAHIo1OG4Ijx4tAB40QUha3ofO2znNQZMX/V6iYX4oHcAqJTjPCFO8kneG+bbFLKK8e091bmMJ0e4YIUH7XiI5gcTg+pyQEJQKTATheRIcsh/CnXMM8EpCABIYioDAdiqzXlYAERiFAh40OL+/MuyLEjXDN1HlXhLPRWUN48F6T15ROKvtyIsinkhggOHPmTNN57ttLg1cZTxMeZtpKSjKUN4VSWh6FaRqndbkYVKHtMq809XlnoIeoEBZ8Wx546/u5Wlde/ycBCUgghYDCNIWSeSQggeoIIEzDI4YwJVwzJUUoGyvC0nlbXqk25fwx8oQYZ59QOqt4i6eSCOfFg81cUwYN+kyEPsY+pqmrmCpM+7OAwnQ7lnDDQ0pkBKKU6QspiYXd2OoITyntWEGaQs08EpDAPgkoTPdJ23tJQAJ7J0AnjkVBrl692nTg+N6VEKex6E4Nq/RSJ7x/7BOKCEdwTSXh5aEj/dZbb21clGXbuipMtyXXz3m0W1flzWcZA278pjEIxfe2xO8ZgzqxyjWDPSYJSEACJRJQmJZoFcskAQn0SgDvQiwKlOJdoCPH6pOvv/56M8ex18IMcLHoqOZsezJAMQa5JKHUhFSfO3euCeftM7QaMU+7uHv3rqG8g1iv/aIK03Y+m47SbtkW5sqVK0mLnCFKGWBjETHCeE0SkIAESiWgMC3VMpZLAhLojQDCDXGKRxHvKR27rkQILx05xGnpibohrphPmzqXtvQ6LZePsMMLFy40AnXTiqHL+VM/0y5YMCraRcp5hvKmUErLozBN47SaK1bfJpQ3JTqCNkvEAeKUzyYJSEACpRJQmJZqGcslAQn0RiDmYOJhYE4WQq4r4WVgASTEaelzsfACh7c0RXR31b2049iCBZCYH9dnx5pOPZ4n5h87x3T/VleYbsectsqiRwxEdYXxcgcG2RjYIYSXZ8kkAQlIoFQCCtNSLWO5JCCB3gkg3nIWB0KUIk6Z51hqitWHL1++3Mw3o7PflRDadFAJiyVsmXP4H5/3kWJhKgYI+NyVKGfM+SWst69yIuKZk8uqvO5j2mWF/o8rTLdjyuAa3lIGVbqed55rnhmEKdvClD7Ith0Rz5KABKZCQGE6FUtaDwlIoJMAW6ngZWBeYUpisRCEackr8+IxwYPy8ccfJ3lP6JhSH+bQ0mElNJbQQDyRfYbJtvFFEIbXJ8V7jRClU3369OnGa9qX1wd21J0BCzr5KQlOrNhMuzDtRkBhuh0/fr8IPydSomtgh2ed1cUZZNvX871drTxLAhKQwGKhMLUVSEACsyEQYoj9PlMSoaPMMeW91MSqpniB2Sqmy3tCHRB1iFJEd3gfOS+8kHzGQxnX4jMCjuO8+Bxel9W8/D+Ot+XlPObCRggt57QlroUwRRCyQi+f+0h6TPuguP01aAeuypvHj2clnneFaR47c0tAAuUTUJiWbyNLKAEJ9EQA7xiilNDNlIQIii0WUvLvOw8dezx9eIIPDw87vSeULzx+eFFWBR7XwwODwAxPTIjNEKbkieOrecnD8a685MFTih0IpU3xmuLtOXnyZOP96WtlUeaYEhaJQDaUd9+td9G0FYVpHnfaLMKUNpsiTJlXShg8v2N9RRrkldjcEpCABNIJKEzTWZlTAhKonADClEVDEEQhvNqqVLowpZMaohRvcFedEIwx3wyBOlZHNYQpYpqwRMRJSkJM08l+5ZVXUrJ35sH75Kq8nZgGy0A7UJjm4c0VphEdQdTHWM97Xg3NLQEJzJmAwnTO1rfuEpgZAYRpCDm8DV2pBmGK5yRVaON1ZMsI9gSlk4rnc4yEgI6QRDzYbOGTkvCUIkqZL9dHIpTXfUz7ILndNRSm+dwUpvnMPEMCEqiHgMK0HltZUglIYEcCCFOECF7TKQhTwnjZvxSxnZIQpnhOWKEzwm1TzhsiT3grWV2U0MSUhJjGa3r+/PlGVFOHXRKdfDzNN27ccLuYXUBuea7CNB8cc7N5XnjuU0J59ZjmM/YMCUhgPAIK0/HYe2cJSGDPBKYmTBHYvFI9jqzQiceRPUHHTnhNmVuKx5eQXkRKSsJrijClLizMtEtSmO5Cb/dzFab5DPkNY142kQYpwpSoDxYNQ6Du+rzkl9YzJCABCeQRUJjm8TK3BCRQMYGpCNOYS8pKvHhLqVdKopPKKsN4HUtJeEyjk51SJgQpdWCu6a7bXxDKi/eJUOjUea6xeJTbxaRYqz2PwrSdz7qjucKUZ51tlo4dOzZa6P66evg/CUhAAusIKEzXUfF/EpDAJAlMRZjSoScUlr0MU1e1xaCsasv8TFbqLCXlen0RhnS2qQefd0kRTgzHVK+zwnQX4k+eqzB9kkfKt1xhypxyBnIYlNJjmkLYPBKQwJgEFKZj0vfeEpDAXglMRZgSAstqsrHNCR38roR3kQ4qgq6k1TnxWCJOmfubkig74byEI+M93WUBJ0J53S4mhfoweRSm+VxzhSlzynnmWY1bYZrP2zMkIIH9ElCY7pe3d5OABEYkMBVhSj3u37/fzM1kMZSUhJeUuWbsZ1hSQmATjsxiLngwuxJClP1XWVmYzvYuIhthiseZcGL3Me0i3/9xhWk+022EKWHnPP8K03zeniEBCeyXgMJ0v7y9mwQkMCKBqQhTVpJlXiTePuZJdiVWr42tb0qaX0q5EaPUg/my2CfF+4s4ZWVhwhR3Cefl3swtvXbtmqG8XY1o6XjMcV7611Yfuc4u+5juYvvlAu+6uvPytYb+nCtMWfQoQnl3GcQZul5eXwISkAAEFKa2AwlIYDYEpiJM2SaGeZF06lO8jHS88ZSyYBAd1ZIS4gRhSn1ShSn1oS7MmUWcbpsQ9XhMEfl6TNMpYrOUdtd2xQjB3laY9rH4FeWjHFGWtvKWcixXmDIQFR7TmupZCm/LIQEJ7JeAwnS/vL2bBCQwIoEpCFPCT5mXiZePzyneKzqk5/+3xQoijjDY0hIeYEJ5EYmpHmDCeENsb9vhhh8in7m6lCElzX3xIzzahI9jq+DO/wgTDW83n2HLcQYR+Iy3jrZKHj7zznfmS6eGcYd9mDeJ/bn+8rX4zL24J8f4HOGrm8rIPGXCXDmX80pPucKUSAnmmDIvO1iUXkfLJwEJzJeAwnS+trfmEpgdgSkIU+rA/FJCX1MTCx9dunTp58586nn7yofQiUWI2JsxJT3zzDNNiCLilM/bJLx+CNIbN24YypsIELGHmIcZQie8p7QxePKdzwhOjiP2GGzgf5EXe3GdyE9ejqUmrhUii2vFdfg/9+KeHOe6CE4SeTi+mpfBGryviNMpClPqx9xy3oNZKmfzSUACEtg3AYXpvol7PwlIYDQCUxCmiILDw8NmJdsUkHRG2cPw4sWLzSq2JXa+ERMI0itXriSH1FL3WGUYr9c2ifuyGjAeO0JKU9LcPaaIvfDYh4cUUUm7CnEZn6OtxXH4xufIm8K8LU/cizzrPq+WIe4beWPuNV7Y8AC33W/sY7ke01deeaXZx3TXFazHrrf3l4AE5kFAYToPO1tLCUjgfwRqFqZ0qBECiFJeOaGneITwmmzrWRy68eDFQiQSnoznlO8piflzsbBLSv7VPHjtwmOawxOWzNubY0KYIuaxVQjTmjlMXZjqMa25dVp2CcyPgMJ0fja3xhKYLYHahSlCiq1N2PeTzymJEMXTp083oXwR1phy3j7zhOgmPBTRk7MFDqJ7W5EIw4cPHzZh0QrTNIsrTNM4DZUr12PqHNOhLOF1JSCBIQgoTIeg6jUlIIEiCdQuTBEFiDc8pqkJjwl7frLoUelzzFgdl/mzqSKROYOEYLJ1DKGZEbaZygYvLWGp3NdQ3jRqCtM0TkPlyhWmRBUwMEU4fw2hykNx87oSkEAdBBSmddjJUkpAAj0QqFmYEjaJiLp3714T7pqCI4TbmTNnmkVgSu+YIkiZ75kqvKkf29/Q8WbuZ65HmJBhBKn7mKa0psd5FKbprIbImStMeT4IPcdzWvrA1BC8vKYEJFAXAYVpXfaytBKQwA4EahemIdpSvXsseBKhrtt4FHdAvdWpiB62bqGeKQmhjSeIjjcdcMRpTiKUN1YDdh/TNHIK0zROQ+XKFaZEFMQ+pgrToazidSUggb4IKEz7Iul1JCCB4gnUKkzxlhJ2imhj/8jUOZiItZMnTzb7fRZvnP8VEA8mYbXMo01dAIkFnagjAhyRmpMUpjm0HudVmOYz6/MMhWmfNL2WBCRQGgGFaWkWsTwSkMBgBHKFKfMz2ScT0TNmQpTiJUW0Ee7K95TEVhGINrwmtSRClfGYYqvY2qOt7ITzYqdTp041+7S25V09hvjlPoTysg1PSnK7mMer8l6/fj158CCF61h5pr4qL4NTsXJ1bqj7WDbxvhKQwHwJKEzna3trLoHZEUDQPXjwoBF47JvZlVjRNkJhu/IOeXxZmFLuFMFGeeiQIk5zQ1yHrEvXtQmtZWVehGLKdiSEKBOiyAJPdMJzUgjTEPwp5xI+jNjfdiXglHuUnAePKV57Bg9Svdol1+eFF15YsEDQVPcxdfGjklufZZOABFYJKExXifhdAhKYLAFCNxGmhIqmCFNCQxGmLK4zZopQXrY2yREDCOvaVuNE+GAbPJk5Ca8pKw/nJAR+bBmT6oVGCMMUQTPHRPsjlBzPfeoAScmcCAWn3fDKXdV5jHrxXMTgGm23KzEw9dZbbzX1K33xs666eFwCEpg+AYXp9G1sDSUggf8nUKswpfiIgBxRyjl0RGvsjO67rnBNFVm1MqU99JW2sU9f9+77OrXZE2HKlko3b95MQqEwTcJkJglIoBACCtNCDGExJCCB4QnULEyHp+MdJCCB0gkoTEu3kOWTgAR2IaAw3YWe50pAAlURwNMT3oaUUF7C/Jh7dvbs2Wq9j1UZyMJKQAKtBJiDzW/YwcFBaz4OsjAYHlPmmhOqXGP0RGclzSABCUyKgMJ0Uua0MhKQQBcBFtZhjmnKHDk6csxdfPvtt5sFduzYddH1uAQkMCSBw8PDRpiyAFVXYtEz5sgjTBGp/n51EfO4BCQwNgGF6dgW8P4SkMBeCeBxYEXRzz//PGleIYvcXLp0yY7dXq3kzSQggXUE2MuYxY8ePXq07vAT/0OYst3VG2+80Qys1bC40xMV8IsEJDA7AgrT2ZncCktg3gTwlBIKhzhNWfCGlW0vXrzYhMK5D+C82461l8DYBK5evdpsp8TKyF0JYYq3NLY2Uph2EfO4BCQwNgGF6dgW8P4SkMBeCeBpCGGask8mnTv2rSQk7vnnn99rWb2ZBCQgAQjwW8VWSghToj5SfruI9sBjijg1SUACEqiBgMK0BitZRglIoDcCLHpEGO/169eTOndPP/10s28lnTvmm7IgkkkCEpDAvgggQvGQIkjv3bu3+Prrr5NuzcJtCNOXX345Kb+ZJCABCYxNQGE6tgW8vwQksFcC7FlJOO8nn3yy+P7775PvzeqWvBCnLCKyGha3+j35wmaUgAQksEQgphjwzgtP6ZdfftmIUgbWUvYz5vcIUUqkx4svvrh0dT9KQAISKJeAwrRc21gyCUhgAAJ06tgL8M6dO40HIlWcIkaZb/rSSy81HT1CfGOVS+aeKkwHMJaXlMAMCfAbxYvfJn6rmH6AMMVTmhLCy+9SzC/Fa8pWMSYJSEACNRBQmNZgJcsoAQn0RgAPBGFxse1Cyn6mcXMEKB2+eBHmiyAlvJd3OoSbFkgij3NUg6TvEpgXgR9++KERmojN8IgGgRCifCdffOd3iu94THnx/5TEbxDzS1mNF28pv1MmCUhAAjUQUJjWYCXLKAEJ9EqAzt7Dhw9/3s80xQuxWgA6f9HhWxam6+agIliPHz/ehNWtXsfvEpDA9Ang+WQKAb87q8IUsRqiEwHKcX6TUqM5VukxcOaCbatU/C4BCdRAQGFag5UsowQkMAiBa9euNVsv5HhNtylIdBTPnDmzzemeIwEJVE4AQcpq4AcHB0nhuNtWl8gNphxcuHDBLa62heh5EpDAaAQUpqOh98YSkMDYBKKzyJ6mQyaF6ZB0vbYEyicQvzVDC9OIzMBjSqSGc9/LbxuWUAIS+IWAwvQXFn6SgARmRoCwObZgoLNImN02Ib0pyAj5paOIF8MkAQnMj8A+hCkDYLF6OHNMTRKQgARqI6Awrc1illcCEuiNAPO6WGAkOo2E9K5bnGTXG+K1YOuGixcv7nopz5eABCokEL8xfXtM+W1h4Ovo0aPNQkfsWYrXNOa/V4jKIktAAjMmoDCdsfGtugQk8JgAnlIWJ2Gl3s8++6wRq32yMZS3T5peSwL1ERhKmLLY2uo2VorS+tqHJZaABB4TUJjaEiQggdkTYBVMvKeE9iJQY+9AvKn8b9vVMQOswjRI+C6BeRLoS5jiGY0XovTYsWONMOU3JlYKd17pPNuYtZbAFAgoTKdgResgAQn0RgCBihBFnBLaizCN/QTZZibmoZIvPq/enGN0Dll8hERHkrlfrsq7SsrvEpgHAYTpgwcPmhe/L8u/D20EQmzyzgsByu8JnxGmzz33XPMevzVt1/KYBCQggdIJKExLt5Dlk4AERiOAwOSFIEWkIlDDe8o7x2JPwninsOSjo0gHMtKJEycWp06diq++S0ACMyLw6NGjZqE1BCq/DwjT5d8HUKx6OvmO+OSFIEWEcg7/50XI7uo5M0JqVSUggQkSUJhO0KhWSQIS6IdAiE3el19cne94TBGnpBCxfObYaoeRziVzwUwSkMD8CDC4RfQFr4i0WP6NQGQuzw3lGF5R3ldfy/SWr7H8fz9LQAISqJGAwrRGq1lmCUigCAIhVikMnU2+b0p4UJc7npvy+X8JSGB6BGIgK0Tpag0RmKvhuKvfV8/xuwQkIIGpEVCYTs2i1kcCEpCABCQgAQlIQAISkEBlBBSmlRnM4kpAAhKQgAQkIAEJSEACEpgaAYXp1CxqfSQgAQlIQAISkIAEJCABCVRGQGFamcEsrgQkIAEJSEACEpCABCQggakRUJhOzaLWRwISkIAEJCABCUhAAhKQQGUEFKaVGcziSkACEpCABCQgAQlIQAISmBoBhenULGp9JCABCUhAAhKQgAQkIAEJVEZAYVqZwSyuBCQgAQlIQAISkIAEJCCBqRFQmE7NotZHAhKQgAQkIAEJSEACEpBAZQQUppUZzOJKQAISkIAEJCABCUhAAhKYGgGF6dQsan0kIAEJSEACEpCABCQgAQlURkBhWpnBLK4EJCABCUhAAhKQgAQkIIGpEVCYTs2i1kcCEpCABCQgAQlIQAISkEBlBBSmlRnM4kpAAhKQgAQkIAEJSEACEpgaAYXp1CxqfSQgAQlIQAISkIAEJCABCVRGQGFamcEsrgQkIAEJSEACEpCABCQggakRUJhOzaLWRwISkIAEJCABCUhAAhKQQGUEFKaVGcziSkACEpCABCQgAQlIQAISmBoBhenULGp9JCABCUhAAhKQgAQkIAEJVEZAYVqZwSyuBCQgAQlIQAISkIAEJCCBqRFQmE7NotZHAmcXD88AAALfSURBVBKQgAQkIAEJSEACEpBAZQQUppUZzOJKQAISkIAEJCABCUhAAhKYGgGF6dQsan0kIAEJSEACEpCABCQgAQlURkBhWpnBLK4EJCABCUhAAhKQgAQkIIGpEVCYTs2i1kcCEpCABCQgAQlIQAISkEBlBBSmlRnM4kpAAhKQgAQkIAEJSEACEpgaAYXp1CxqfSQgAQlIQAISkIAEJCABCVRGQGFamcEsrgQkIAEJSEACEpCABCQggakRUJhOzaLWRwISkIAEJCABCUhAAhKQQGUEFKaVGcziSkACEpCABCQgAQlIQAISmBoBhenULGp9JCABCUhAAhKQgAQkIAEJVEZAYVqZwSyuBCQgAQlIQAISkIAEJCCBqRFQmE7NotZHAhKQgAQkIAEJSEACEpBAZQQUppUZzOJKQAISkIAEJCABCUhAAhKYGgGF6dQsan0kIAEJSEACEpCABCQgAQlURkBhWpnBLK4EJCABCUhAAhKQgAQkIIGpEVCYTs2i1kcCEpCABCQgAQlIQAISkEBlBBSmlRnM4kpAAhKQgAQkIAEJSEACEpgaAYXp1CxqfSQgAQlIQAISkIAEJCABCVRGQGFamcEsrgQkIAEJSEACEpCABCQggakRUJhOzaLWRwISkIAEJCABCUhAAhKQQGUEFKaVGcziSkACEpCABCQgAQlIQAISmBoBhenULGp9JCABCUhAAhKQgAQkIAEJVEZAYVqZwSyuBCQgAQlIQAISkIAEJCCBqRFQmE7NotZHAhKQgAQkIAEJSEACEpBAZQQUppUZzOJKQAISkIAEJCABCUhAAhKYGgGF6dQsan0kIAEJSEACEpCABCQgAQlURkBhWpnBLK4EJCABCUhAAhKQgAQkIIGpEVCYTs2i1kcCEpCABCQgAQlIQAISkEBlBBSmlRnM4kpAAhKQgAQkIAEJSEACEpgaAYXp1CxqfSQgAQlIQAISkIAEJCABCVRG4P8A9bEdb+v1UqgAAAAASUVORK5CYII=;" vertex="1" parent="Jg988Ya-Pu23oOCJ0d98-35">
          <mxGeometry x="41.23000000000002" y="61.063829787234035" width="61.30892861538462" height="33.13750769230769" as="geometry" />
        </mxCell>
        <mxCell id="Jg988Ya-Pu23oOCJ0d98-57" value="" style="group" vertex="1" connectable="0" parent="Jg988Ya-Pu23oOCJ0d98-39">
          <mxGeometry x="90" y="450" width="160" height="130" as="geometry" />
        </mxCell>
        <mxCell id="Jg988Ya-Pu23oOCJ0d98-55" value="&lt;font style=&quot;font-size: 10px&quot;&gt;&lt;font style=&quot;font-size: 12px&quot; color=&quot;#844BBD&quot;&gt;&lt;b&gt;Heroku&lt;/b&gt;&lt;/font&gt;&lt;br&gt;Desplegar en producción el API REST (Backend)&lt;br&gt;&lt;/font&gt;" style="rounded=1;strokeColor=none;fillColor=#EEEEEE;align=left;arcSize=12;verticalAlign=top;whiteSpace=wrap;html=1;fontSize=12;spacing=8;" vertex="1" parent="Jg988Ya-Pu23oOCJ0d98-57">
          <mxGeometry width="160" height="129.99999999999997" as="geometry" />
        </mxCell>
        <mxCell id="Jg988Ya-Pu23oOCJ0d98-52" value="" style="shape=image;html=1;verticalAlign=top;verticalLabelPosition=bottom;labelBackgroundColor=#ffffff;imageAspect=0;aspect=fixed;image=https://cdn1.iconfinder.com/data/icons/simple-icons/128/heroku-128-black.png;fontSize=14;" vertex="1" parent="Jg988Ya-Pu23oOCJ0d98-57">
          <mxGeometry x="55" y="64.99999999999999" width="50" height="50" as="geometry" />
        </mxCell>
        <mxCell id="Jg988Ya-Pu23oOCJ0d98-61" value="" style="group" vertex="1" connectable="0" parent="Jg988Ya-Pu23oOCJ0d98-39">
          <mxGeometry x="590" y="450" width="150" height="130" as="geometry" />
        </mxCell>
        <mxCell id="Jg988Ya-Pu23oOCJ0d98-68" value="" style="group" vertex="1" connectable="0" parent="Jg988Ya-Pu23oOCJ0d98-61">
          <mxGeometry width="150.00000000000003" height="129.99999999999997" as="geometry" />
        </mxCell>
        <mxCell id="Jg988Ya-Pu23oOCJ0d98-62" value="&lt;font style=&quot;font-size: 10px&quot;&gt;&lt;font style=&quot;font-size: 12px&quot; color=&quot;#006666&quot;&gt;&lt;b&gt;Netlify&lt;/b&gt;&lt;/font&gt;&lt;br&gt;Desplegar el Frontend&lt;br&gt;&lt;/font&gt;" style="rounded=1;strokeColor=none;fillColor=#EEEEEE;align=left;arcSize=12;verticalAlign=top;whiteSpace=wrap;html=1;fontSize=12;spacing=8;" vertex="1" parent="Jg988Ya-Pu23oOCJ0d98-68">
          <mxGeometry width="150.00000000000003" height="129.99999999999997" as="geometry" />
        </mxCell>
        <mxCell id="Jg988Ya-Pu23oOCJ0d98-66" value="" style="shape=image;html=1;verticalAlign=top;verticalLabelPosition=bottom;labelBackgroundColor=#00ad9e;imageAspect=0;aspect=fixed;image=https://cdn4.iconfinder.com/data/icons/logos-brands-5/24/netlify-128.png;strokeColor=#0e1e24;fontSize=14;fontColor=#00ad9e;" vertex="1" parent="Jg988Ya-Pu23oOCJ0d98-68">
          <mxGeometry x="49.038461538461526" y="59.58333333333332" width="45" height="45" as="geometry" />
        </mxCell>
        <mxCell id="Jg988Ya-Pu23oOCJ0d98-67" value="" style="group" vertex="1" connectable="0" parent="Jg988Ya-Pu23oOCJ0d98-39">
          <mxGeometry x="430" y="450" width="150" height="130" as="geometry" />
        </mxCell>
        <mxCell id="Jg988Ya-Pu23oOCJ0d98-59" value="&lt;font style=&quot;font-size: 10px&quot;&gt;&lt;font style=&quot;font-size: 12px&quot;&gt;&lt;b&gt;Vercel&lt;/b&gt;&lt;/font&gt;&lt;br&gt;Desplegar el Frontend&lt;br&gt;&lt;/font&gt;" style="rounded=1;strokeColor=none;fillColor=#EEEEEE;align=left;arcSize=12;verticalAlign=top;whiteSpace=wrap;html=1;fontSize=12;spacing=8;" vertex="1" parent="Jg988Ya-Pu23oOCJ0d98-67">
          <mxGeometry width="150.00000000000003" height="129.99999999999997" as="geometry" />
        </mxCell>
        <mxCell id="Jg988Ya-Pu23oOCJ0d98-65" value="" style="shape=image;html=1;verticalAlign=top;verticalLabelPosition=bottom;labelBackgroundColor=#ffffff;imageAspect=0;aspect=fixed;image=https://cdn4.iconfinder.com/data/icons/logos-brands-5/24/zeit-128.png;strokeColor=#FFFFFF;fontSize=14;fontColor=#FFFFFF;" vertex="1" parent="Jg988Ya-Pu23oOCJ0d98-67">
          <mxGeometry x="51.92307692307692" y="54.16666666666664" width="39.735099337748345" height="39.735099337748345" as="geometry" />
        </mxCell>
        <mxCell id="Jg988Ya-Pu23oOCJ0d98-83" value="" style="endArrow=classic;html=1;" edge="1" parent="Jg988Ya-Pu23oOCJ0d98-39" source="Jg988Ya-Pu23oOCJ0d98-55" target="Jg988Ya-Pu23oOCJ0d98-59">
          <mxGeometry relative="1" as="geometry">
            <mxPoint x="290" y="660" as="sourcePoint" />
            <mxPoint x="390" y="660" as="targetPoint" />
            <Array as="points" />
          </mxGeometry>
        </mxCell>
        <mxCell id="Jg988Ya-Pu23oOCJ0d98-84" value="&lt;div&gt;API REST&lt;/div&gt;" style="edgeLabel;resizable=0;html=1;align=center;verticalAlign=middle;" connectable="0" vertex="1" parent="Jg988Ya-Pu23oOCJ0d98-83">
          <mxGeometry relative="1" as="geometry" />
        </mxCell>
      </root>
    </mxGraphModel>
  </diagram>
</mxfile>
